<svg version="1.1" viewBox="0.0 0.0 600.0 371.0" fill="none" stroke="none" stroke-linecap="square" stroke-miterlimit="10" width="600" height="371" xmlns:xlink="http://www.w3.org/1999/xlink" xmlns="http://www.w3.org/2000/svg"><path fill="#ffffff" d="M0 0L600.0 0L600.0 371.0L0 371.0L0 0Z" fill-rule="nonzero"/><path fill="#4285f4" d="M300.0 58.200626C336.47357 58.200626 372.04858 66.12268 401.8182 80.874115L300.0 181.55812Z" fill-rule="nonzero"/><path fill="#ea4335" d="M401.8182 80.874115C407.72684 83.80196 413.37216 86.981895 418.72202 90.395836L300.0 181.55812Z" fill-rule="nonzero"/><path fill="#fbbc04" d="M418.72202 90.395836C424.07187 93.80977 429.11615 97.45122 433.82614 101.29948L300.0 181.55812Z" fill-rule="nonzero"/><path fill="#34a853" d="M433.82614 101.29948C452.75598 116.76599 465.9207 135.27277 472.14508 155.16788L300.0 181.55812Z" fill-rule="nonzero"/><path fill="#b34c01" d="M476.225 207.99188C476.225 209.25836 476.19714 210.52478 476.14142 211.79068L476.14142 185.35693C476.19714 184.09103 476.225 182.82462 476.225 181.55812Z" fill-rule="nonzero"/><path fill="#ff6d01" d="M472.14508 155.16788C475.24545 165.07759 476.5877 175.21716 476.14142 185.35693L300.0 181.55812Z" fill-rule="nonzero"/><path fill="#31848b" d="M476.14142 211.79068C474.32153 253.1386 443.01535 291.09534 392.7705 312.87253L392.7705 286.43878C443.01535 264.6616 474.32153 226.70485 476.14142 185.35693Z" fill-rule="nonzero"/><path fill="#46bdc6" d="M476.14142 185.35693C474.32153 226.70485 443.01535 264.6616 392.7705 286.43878L300.0 181.55812Z" fill-rule="nonzero"/><path fill="#5677ad" d="M392.7705 312.87253C368.0333 323.59418 339.88858 329.86163 310.84857 331.11542L310.84857 304.68167C339.88858 303.42786 368.0333 297.16043 392.7705 286.43878Z" fill-rule="nonzero"/><path fill="#7baaf7" d="M392.7705 286.43878C368.0333 297.16043 339.88858 303.42786 310.84857 304.68167L300.0 181.55812Z" fill-rule="nonzero"/><path fill="#ff994d" d="M181.27798 90.395836C213.73738 69.68237 256.07712 58.200626 300.0 58.200626L300.0 181.55812Z" fill-rule="nonzero"/><path fill="#4f885f" d="M125.86054 226.91388C124.472244 220.6534 123.775 214.32735 123.775 207.99188L123.775 181.55812C123.775 187.89359 124.472244 194.21965 125.86054 200.48013Z" fill-rule="nonzero"/><path fill="#71c287" d="M125.86054 200.48013C116.79563 159.60216 137.60515 118.26497 181.27798 90.395836L300.0 181.55812Z" fill-rule="nonzero"/><path fill="#b09237" d="M189.52036 304.09732C155.30089 284.8219 132.59795 257.29605 125.86054 226.91388L125.86054 200.48013C132.59795 230.86229 155.30089 258.38815 189.52036 277.66354Z" fill-rule="nonzero"/><path fill="#fcd04f" d="M189.52036 277.66354C155.30089 258.38815 132.59795 230.86229 125.86054 200.48013L300.0 181.55812Z" fill-rule="nonzero"/><path fill="#a85650" d="M310.84857 331.11542C267.009 333.00815 223.73982 323.3727 189.52036 304.09732L189.52036 277.66354C223.73982 296.93896 267.009 306.5744 310.84857 304.68167Z" fill-rule="nonzero"/><path fill="#f07b72" d="M310.84857 304.68167C267.009 306.5744 223.73982 296.93896 189.52036 277.66354L300.0 181.55812Z" fill-rule="nonzero"/><path fill="#1a1a1a" d="M19.221874 61.90705Q19.221874 59.40705 20.565624 58.0008Q21.909374 56.578926 24.01875 56.578926Q25.409374 56.578926 26.51875 57.2508Q27.64375 57.90705 28.221874 59.09455Q28.815624 60.28205 28.815624 61.78205Q28.815624 63.3133 28.190624 64.516426Q27.58125 65.71955 26.45625 66.34455Q25.33125 66.953926 24.01875 66.953926Q22.596874 66.953926 21.4875 66.266426Q20.378124 65.578926 19.8 64.40705Q19.221874 63.21955 19.221874 61.90705ZM20.596874 61.922676Q20.596874 63.735176 21.565624 64.78205Q22.55 65.8133 24.01875 65.8133Q25.503124 65.8133 26.471874 64.766426Q27.440624 63.71955 27.440624 61.78205Q27.440624 60.547676 27.01875 59.641426Q26.6125 58.735176 25.815624 58.235176Q25.01875 57.71955 24.034374 57.71955Q22.628124 57.71955 21.6125 58.6883Q20.596874 59.65705 20.596874 61.922676ZM33.159374 65.6883L33.33125 66.766426Q32.815624 66.8758 32.409374 66.8758Q31.7375 66.8758 31.3625 66.672676Q31.003124 66.453926 30.846874 66.110176Q30.70625 65.766426 30.70625 64.65705L30.70625 60.485176L29.8 60.485176L29.8 59.516426L30.70625 59.516426L30.70625 57.71955L31.925 56.985176L31.925 59.516426L33.159374 59.516426L33.159374 60.485176L31.925 60.485176L31.925 64.71955Q31.925 65.2508 31.9875 65.40705Q32.05 65.547676 32.190624 65.641426Q32.346874 65.735176 32.6125 65.735176Q32.83125 65.735176 33.159374 65.6883ZM34.471874 66.78205L34.471874 56.766426L35.70625 56.766426L35.70625 60.360176Q36.565624 59.360176 37.878124 59.360176Q38.690624 59.360176 39.284374 59.6883Q39.878124 60.0008 40.128124 60.5633Q40.39375 61.110176 40.39375 62.1883L40.39375 66.78205L39.159374 66.78205L39.159374 62.1883Q39.159374 61.2508 38.753124 60.84455Q38.3625 60.422676 37.628124 60.422676Q37.08125 60.422676 36.596874 60.703926Q36.1125 60.985176 35.909374 61.46955Q35.70625 61.953926 35.70625 62.8133L35.70625 66.78205L34.471874 66.78205ZM47.440624 64.4383L48.721874 64.59455Q48.409374 65.71955 47.596874 66.34455Q46.784374 66.953926 45.51875 66.953926Q43.925 66.953926 42.9875 65.96955Q42.065624 64.985176 42.065624 63.21955Q42.065624 61.3758 43.003124 60.3758Q43.95625 59.360176 45.45625 59.360176Q46.909374 59.360176 47.83125 60.360176Q48.753124 61.34455 48.753124 63.141426Q48.753124 63.2508 48.753124 63.46955L43.33125 63.46955Q43.409374 64.65705 44.003124 65.297676Q44.6125 65.9383 45.534374 65.9383Q46.20625 65.9383 46.675 65.578926Q47.159374 65.21955 47.440624 64.4383ZM43.409374 62.453926L47.45625 62.453926Q47.378124 61.53205 46.9875 61.078926Q46.409374 60.3758 45.471874 60.3758Q44.6125 60.3758 44.034374 60.9383Q43.471874 61.5008 43.409374 62.453926ZM50.45625 66.78205L50.45625 59.516426L51.565624 59.516426L51.565624 60.6258Q51.9875 59.84455 52.346874 59.610176Q52.70625 59.360176 53.14375 59.360176Q53.76875 59.360176 54.409374 59.7508L53.9875 60.891426Q53.534374 60.6258 53.08125 60.6258Q52.675 60.6258 52.346874 60.8758Q52.034374 61.110176 51.89375 61.547676Q51.690624 62.203926 51.690624 62.985176L51.690624 66.78205L50.45625 66.78205Z" fill-rule="nonzero"/><path fill="#9e9e9e" d="M23.76875 86.78205L22.534374 86.78205L22.534374 78.9383Q22.096874 79.360176 21.3625 79.797676Q20.64375 80.21955 20.08125 80.422676L20.08125 79.235176Q21.1125 78.7508 21.878124 78.0633Q22.659374 77.3758 22.971874 76.71955L23.76875 76.71955L23.76875 86.78205ZM31.76875 86.78205L30.534374 86.78205L30.534374 78.9383Q30.096874 79.360176 29.3625 79.797676Q28.64375 80.21955 28.08125 80.422676L28.08125 79.235176Q29.1125 78.7508 29.878124 78.0633Q30.659374 77.3758 30.971874 76.71955L31.76875 76.71955L31.76875 86.78205ZM35.815624 86.78205L35.815624 85.3758L37.221874 85.3758L37.221874 86.78205L35.815624 86.78205ZM41.01875 81.34455Q40.253124 81.0633 39.878124 80.547676Q39.51875 80.03205 39.51875 79.297676Q39.51875 78.203926 40.3 77.46955Q41.096874 76.71955 42.39375 76.71955Q43.70625 76.71955 44.503124 77.485176Q45.315624 78.2508 45.315624 79.34455Q45.315624 80.03205 44.940624 80.547676Q44.58125 81.0633 43.83125 81.34455Q44.753124 81.641426 45.2375 82.3133Q45.721874 82.985176 45.721874 83.922676Q45.721874 85.203926 44.815624 86.078926Q43.909374 86.953926 42.425 86.953926Q40.940624 86.953926 40.01875 86.078926Q39.1125 85.1883 39.1125 83.8758Q39.1125 82.90705 39.6125 82.2508Q40.1125 81.578926 41.01875 81.34455ZM40.784374 79.266426Q40.784374 79.96955 41.2375 80.422676Q41.690624 80.8758 42.425 80.8758Q43.14375 80.8758 43.596874 80.4383Q44.05 79.985176 44.05 79.328926Q44.05 78.65705 43.58125 78.203926Q43.1125 77.735176 42.409374 77.735176Q41.70625 77.735176 41.2375 78.1883Q40.784374 78.6258 40.784374 79.266426ZM40.378124 83.891426Q40.378124 84.422676 40.628124 84.922676Q40.878124 85.40705 41.3625 85.672676Q41.8625 85.9383 42.440624 85.9383Q43.315624 85.9383 43.878124 85.3758Q44.45625 84.8133 44.45625 83.9383Q44.45625 83.047676 43.8625 82.46955Q43.284374 81.8758 42.39375 81.8758Q41.51875 81.8758 40.940624 82.453926Q40.378124 83.03205 40.378124 83.891426ZM47.3625 79.172676Q47.3625 78.09455 47.89375 77.34455Q48.440624 76.59455 49.471874 76.59455Q50.409374 76.59455 51.01875 77.266426Q51.64375 77.9383 51.64375 79.235176Q51.64375 80.516426 51.01875 81.203926Q50.39375 81.891426 49.4875 81.891426Q48.58125 81.891426 47.971874 81.21955Q47.3625 80.53205 47.3625 79.172676ZM49.503124 77.4383Q49.05 77.4383 48.7375 77.84455Q48.440624 78.235176 48.440624 79.28205Q48.440624 80.2508 48.7375 80.641426Q49.05 81.03205 49.503124 81.03205Q49.971874 81.03205 50.26875 80.641426Q50.58125 80.2508 50.58125 79.1883Q50.58125 78.21955 50.26875 77.828926Q49.95625 77.4383 49.503124 77.4383ZM49.503124 87.15705L54.9875 76.59455L55.9875 76.59455L50.534374 87.15705L49.503124 87.15705ZM53.846874 84.422676Q53.846874 83.34455 54.378124 82.610176Q54.925 81.860176 55.95625 81.860176Q56.89375 81.860176 57.51875 82.53205Q58.14375 83.203926 58.14375 84.5008Q58.14375 85.78205 57.51875 86.46955Q56.89375 87.15705 55.95625 87.15705Q55.05 87.15705 54.440624 86.485176Q53.846874 85.797676 53.846874 84.422676ZM55.9875 82.703926Q55.51875 82.703926 55.221874 83.110176Q54.925 83.5008 54.925 84.547676Q54.925 85.516426 55.221874 85.90705Q55.534374 86.297676 55.9875 86.297676Q56.45625 86.297676 56.753124 85.90705Q57.065624 85.516426 57.065624 84.453926Q57.065624 83.485176 56.753124 83.09455Q56.45625 82.703926 55.9875 82.703926Z" fill-rule="nonzero"/><path stroke="#757575" stroke-width="1.0" stroke-linecap="butt" d="M18.55 72.28205L117.775 72.28205L239.52318 72.28205" fill-rule="nonzero"/><path fill="#9e9e9e" d="M241.52318 72.28205C241.52318 71.17748 240.62775 70.28205 239.52318 70.28205C238.41861 70.28205 237.52318 71.17748 237.52318 72.28205C237.52318 73.38663 238.41861 74.28205 239.52318 74.28205C240.62775 74.28205 241.52318 73.38663 241.52318 72.28205" fill-rule="nonzero"/><path fill="#1a1a1a" d="M19.659374 137.10959L19.659374 127.09396L26.909374 127.09396L26.909374 128.26584L20.9875 128.26584L20.9875 131.34396L26.534374 131.34396L26.534374 132.51584L20.9875 132.51584L20.9875 135.92209L27.14375 135.92209L27.14375 137.10959L19.659374 137.10959ZM33.190624 137.10959L33.190624 136.18771Q32.4875 137.28146 31.159374 137.28146Q30.284374 137.28146 29.55 136.79709Q28.83125 136.31271 28.425 135.45334Q28.034374 134.59396 28.034374 133.48459Q28.034374 132.40646 28.39375 131.51584Q28.753124 130.62521 29.471874 130.15646Q30.20625 129.68771 31.096874 129.68771Q31.753124 129.68771 32.26875 129.96896Q32.784374 130.23459 33.096874 130.68771L33.096874 127.09396L34.33125 127.09396L34.33125 137.10959L33.190624 137.10959ZM29.3 133.48459Q29.3 134.87521 29.878124 135.57834Q30.471874 136.26584 31.26875 136.26584Q32.08125 136.26584 32.64375 135.60959Q33.20625 134.93771 33.20625 133.59396Q33.20625 132.09396 32.628124 131.40646Q32.05 130.70334 31.221874 130.70334Q30.39375 130.70334 29.846874 131.37521Q29.3 132.04709 29.3 133.48459ZM41.2375 137.10959L41.2375 136.04709Q40.378124 137.28146 38.925 137.28146Q38.284374 137.28146 37.721874 137.03146Q37.175 136.78146 36.89375 136.40646Q36.628124 136.03146 36.51875 135.50021Q36.440624 135.14084 36.440624 134.34396L36.440624 129.84396L37.675 129.84396L37.675 133.87521Q37.675 134.84396 37.753124 135.17209Q37.8625 135.65646 38.2375 135.93771Q38.6125 136.21896 39.175 136.21896Q39.721874 136.21896 40.20625 135.93771Q40.690624 135.64084 40.89375 135.15646Q41.096874 134.67209 41.096874 133.73459L41.096874 129.84396L42.33125 129.84396L42.33125 137.10959L41.2375 137.10959ZM49.20625 134.45334L50.425 134.60959Q50.221874 135.85959 49.39375 136.57834Q48.58125 137.28146 47.39375 137.28146Q45.909374 137.28146 45.003124 136.31271Q44.096874 135.32834 44.096874 133.50021Q44.096874 132.32834 44.4875 131.45334Q44.878124 130.56271 45.675 130.12521Q46.471874 129.68771 47.409374 129.68771Q48.58125 129.68771 49.33125 130.28146Q50.096874 130.87521 50.3 131.98459L49.1125 132.17209Q48.940624 131.43771 48.503124 131.07834Q48.065624 130.70334 47.45625 130.70334Q46.51875 130.70334 45.940624 131.37521Q45.3625 132.03146 45.3625 133.46896Q45.3625 134.93771 45.925 135.60959Q46.4875 136.26584 47.378124 136.26584Q48.1125 136.26584 48.596874 135.82834Q49.08125 135.37521 49.20625 134.45334ZM56.20625 136.21896Q55.534374 136.79709 54.89375 137.04709Q54.26875 137.28146 53.534374 137.28146Q52.346874 137.28146 51.690624 136.70334Q51.05 136.10959 51.05 135.18771Q51.05 134.65646 51.284374 134.21896Q51.534374 133.78146 51.925 133.51584Q52.33125 133.25021 52.815624 133.10959Q53.175 133.01584 53.909374 132.92209Q55.409374 132.75021 56.1125 132.50021Q56.1125 132.25021 56.1125 132.18771Q56.1125 131.42209 55.76875 131.12521Q55.3 130.70334 54.3625 130.70334Q53.503124 130.70334 53.08125 131.01584Q52.675 131.31271 52.471874 132.07834L51.26875 131.92209Q51.425 131.14084 51.8 130.67209Q52.190624 130.20334 52.89375 129.95334Q53.6125 129.68771 54.55 129.68771Q55.471874 129.68771 56.05 129.90646Q56.628124 130.12521 56.89375 130.45334Q57.175 130.78146 57.284374 131.29709Q57.346874 131.60959 57.346874 132.42209L57.346874 134.06271Q57.346874 135.78146 57.425 136.23459Q57.503124 136.68771 57.7375 137.10959L56.45625 137.10959Q56.26875 136.71896 56.20625 136.21896ZM56.1125 133.46896Q55.440624 133.73459 54.096874 133.93771Q53.346874 134.04709 53.01875 134.18771Q52.70625 134.31271 52.534374 134.57834Q52.3625 134.84396 52.3625 135.15646Q52.3625 135.65646 52.7375 135.98459Q53.1125 136.31271 53.83125 136.31271Q54.55 136.31271 55.096874 136.00021Q55.64375 135.68771 55.909374 135.14084Q56.1125 134.73459 56.1125 133.92209L56.1125 133.46896ZM62.159374 136.01584L62.33125 137.09396Q61.815624 137.20334 61.409374 137.20334Q60.7375 137.20334 60.3625 137.00021Q60.003124 136.78146 59.846874 136.43771Q59.70625 136.09396 59.70625 134.98459L59.70625 130.81271L58.8 130.81271L58.8 129.84396L59.70625 129.84396L59.70625 128.04709L60.925 127.31271L60.925 129.84396L62.159374 129.84396L62.159374 130.81271L60.925 130.81271L60.925 135.04709Q60.925 135.57834 60.9875 135.73459Q61.05 135.87521 61.190624 135.96896Q61.346874 136.06271 61.6125 136.06271Q61.83125 136.06271 62.159374 136.01584ZM63.4875 128.50021L63.4875 127.09396L64.70625 127.09396L64.70625 128.50021L63.4875 128.50021ZM63.4875 137.10959L63.4875 129.84396L64.70625 129.84396L64.70625 137.10959L63.4875 137.10959ZM66.01875 133.48459Q66.01875 131.46896 67.14375 130.48459Q68.06563 129.68771 69.425 129.68771Q70.90938 129.68771 71.8625 130.67209Q72.81563 131.64084 72.81563 133.37521Q72.81563 134.78146 72.39375 135.59396Q71.97188 136.39084 71.15938 136.84396Q70.3625 137.28146 69.425 137.28146Q67.89375 137.28146 66.95625 136.29709Q66.01875 135.31271 66.01875 133.48459ZM67.28438 133.48459Q67.28438 134.87521 67.89375 135.57834Q68.50313 136.26584 69.425 136.26584Q70.33125 136.26584 70.94063 135.56271Q71.55 134.85959 71.55 133.43771Q71.55 132.09396 70.94063 131.40646Q70.33125 130.70334 69.425 130.70334Q68.50313 130.70334 67.89375 131.39084Q67.28438 132.07834 67.28438 133.48459ZM74.47188 137.10959L74.47188 129.84396L75.58125 129.84396L75.58125 130.87521Q76.37813 129.68771 77.89375 129.68771Q78.55 129.68771 79.09688 129.92209Q79.64375 130.15646 79.90938 130.54709Q80.19063 130.92209 80.3 131.45334Q80.37813 131.79709 80.37813 132.64084L80.37813 137.10959L79.14375 137.10959L79.14375 132.68771Q79.14375 131.93771 79.00313 131.57834Q78.8625 131.20334 78.4875 130.98459Q78.12813 130.75021 77.62813 130.75021Q76.84688 130.75021 76.26875 131.25021Q75.70625 131.75021 75.70625 133.14084L75.70625 137.10959L74.47188 137.10959Z" fill-rule="nonzero"/><path fill="#9e9e9e" d="M23.76875 157.10959L22.534374 157.10959L22.534374 149.26584Q22.096874 149.68771 21.3625 150.12521Q20.64375 150.54709 20.08125 150.75021L20.08125 149.56271Q21.1125 149.07834 21.878124 148.39084Q22.659374 147.70334 22.971874 147.04709L23.76875 147.04709L23.76875 157.10959ZM27.128124 154.48459L28.425 154.37521Q28.565624 155.31271 29.08125 155.79709Q29.6125 156.26584 30.346874 156.26584Q31.2375 156.26584 31.846874 155.59396Q32.471874 154.92209 32.471874 153.82834Q32.471874 152.76584 31.878124 152.15646Q31.284374 151.54709 30.33125 151.54709Q29.7375 151.54709 29.253124 151.82834Q28.784374 152.09396 28.503124 152.51584L27.346874 152.37521L28.315624 147.21896L33.3 147.21896L33.3 148.40646L29.3 148.40646L28.76875 151.09396Q29.675 150.46896 30.659374 150.46896Q31.971874 150.46896 32.8625 151.37521Q33.76875 152.28146 33.76875 153.71896Q33.76875 155.07834 32.9875 156.06271Q32.01875 157.28146 30.346874 157.28146Q28.9875 157.28146 28.1125 156.51584Q27.253124 155.75021 27.128124 154.48459ZM35.815624 157.10959L35.815624 155.70334L37.221874 155.70334L37.221874 157.10959L35.815624 157.10959ZM39.20625 148.40646L39.20625 147.21896L45.70625 147.21896L45.70625 148.17209Q44.7375 149.18771 43.8 150.87521Q42.8625 152.56271 42.346874 154.35959Q41.9875 155.60959 41.878124 157.10959L40.6125 157.10959Q40.628124 155.92209 41.065624 154.25021Q41.51875 152.57834 42.346874 151.03146Q43.190624 149.46896 44.128124 148.40646L39.20625 148.40646ZM47.3625 149.50021Q47.3625 148.42209 47.89375 147.67209Q48.440624 146.92209 49.471874 146.92209Q50.409374 146.92209 51.01875 147.59396Q51.64375 148.26584 51.64375 149.56271Q51.64375 150.84396 51.01875 151.53146Q50.39375 152.21896 49.4875 152.21896Q48.58125 152.21896 47.971874 151.54709Q47.3625 150.85959 47.3625 149.50021ZM49.503124 147.76584Q49.05 147.76584 48.7375 148.17209Q48.440624 148.56271 48.440624 149.60959Q48.440624 150.57834 48.7375 150.96896Q49.05 151.35959 49.503124 151.35959Q49.971874 151.35959 50.26875 150.96896Q50.58125 150.57834 50.58125 149.51584Q50.58125 148.54709 50.26875 148.15646Q49.95625 147.76584 49.503124 147.76584ZM49.503124 157.48459L54.9875 146.92209L55.9875 146.92209L50.534374 157.48459L49.503124 157.48459ZM53.846874 154.75021Q53.846874 153.67209 54.378124 152.93771Q54.925 152.18771 55.95625 152.18771Q56.89375 152.18771 57.51875 152.85959Q58.14375 153.53146 58.14375 154.82834Q58.14375 156.10959 57.51875 156.79709Q56.89375 157.48459 55.95625 157.48459Q55.05 157.48459 54.440624 156.81271Q53.846874 156.12521 53.846874 154.75021ZM55.9875 153.03146Q55.51875 153.03146 55.221874 153.43771Q54.925 153.82834 54.925 154.87521Q54.925 155.84396 55.221874 156.23459Q55.534374 156.62521 55.9875 156.62521Q56.45625 156.62521 56.753124 156.23459Q57.065624 155.84396 57.065624 154.78146Q57.065624 153.81271 56.753124 153.42209Q56.45625 153.03146 55.9875 153.03146Z" fill-rule="nonzero"/><path stroke="#757575" stroke-width="1.0" stroke-linecap="butt" d="M18.55 142.60959L117.775 142.60959L142.10298 142.60959" fill-rule="nonzero"/><path fill="#9e9e9e" d="M144.10298 142.60959C144.10298 141.50502 143.20755 140.60959 142.10298 140.60959C140.99841 140.60959 140.10298 141.50502 140.10298 142.60959C140.10298 143.71416 140.99841 144.60959 142.10298 144.60959C143.20755 144.60959 144.10298 143.71416 144.10298 142.60959" fill-rule="nonzero"/><path fill="#1a1a1a" d="M19.675 234.65294L19.675 224.63731L21.003124 224.63731L21.003124 228.74669L26.20625 228.74669L26.20625 224.63731L27.534374 224.63731L27.534374 234.65294L26.20625 234.65294L26.20625 229.93419L21.003124 229.93419L21.003124 234.65294L19.675 234.65294ZM33.440624 232.30919L34.721874 232.46544Q34.409374 233.59044 33.596874 234.21544Q32.784374 234.82481 31.51875 234.82481Q29.925 234.82481 28.9875 233.84044Q28.065624 232.85606 28.065624 231.09044Q28.065624 229.24669 29.003124 228.24669Q29.95625 227.23106 31.45625 227.23106Q32.909374 227.23106 33.83125 228.23106Q34.753124 229.21544 34.753124 231.01231Q34.753124 231.12169 34.753124 231.34044L29.33125 231.34044Q29.409374 232.52794 30.003124 233.16856Q30.6125 233.80919 31.534374 233.80919Q32.20625 233.80919 32.675 233.44981Q33.159374 233.09044 33.440624 232.30919ZM29.409374 230.32481L33.45625 230.32481Q33.378124 229.40294 32.9875 228.94981Q32.409374 228.24669 31.471874 228.24669Q30.6125 228.24669 30.034374 228.80919Q29.471874 229.37169 29.409374 230.32481ZM41.20625 233.76231Q40.534374 234.34044 39.89375 234.59044Q39.26875 234.82481 38.534374 234.82481Q37.346874 234.82481 36.690624 234.24669Q36.05 233.65294 36.05 232.73106Q36.05 232.19981 36.284374 231.76231Q36.534374 231.32481 36.925 231.05919Q37.33125 230.79356 37.815624 230.65294Q38.175 230.55919 38.909374 230.46544Q40.409374 230.29356 41.1125 230.04356Q41.1125 229.79356 41.1125 229.73106Q41.1125 228.96544 40.76875 228.66856Q40.3 228.24669 39.3625 228.24669Q38.503124 228.24669 38.08125 228.55919Q37.675 228.85606 37.471874 229.62169L36.26875 229.46544Q36.425 228.68419 36.8 228.21544Q37.190624 227.74669 37.89375 227.49669Q38.6125 227.23106 39.55 227.23106Q40.471874 227.23106 41.05 227.44981Q41.628124 227.66856 41.89375 227.99669Q42.175 228.32481 42.284374 228.84044Q42.346874 229.15294 42.346874 229.96544L42.346874 231.60606Q42.346874 233.32481 42.425 233.77794Q42.503124 234.23106 42.7375 234.65294L41.45625 234.65294Q41.26875 234.26231 41.20625 233.76231ZM41.1125 231.01231Q40.440624 231.27794 39.096874 231.48106Q38.346874 231.59044 38.01875 231.73106Q37.70625 231.85606 37.534374 232.12169Q37.3625 232.38731 37.3625 232.69981Q37.3625 233.19981 37.7375 233.52794Q38.1125 233.85606 38.83125 233.85606Q39.55 233.85606 40.096874 233.54356Q40.64375 233.23106 40.909374 232.68419Q41.1125 232.27794 41.1125 231.46544L41.1125 231.01231ZM44.440624 234.65294L44.440624 224.63731L45.675 224.63731L45.675 234.65294L44.440624 234.65294ZM50.159374 233.55919L50.33125 234.63731Q49.815624 234.74669 49.409374 234.74669Q48.7375 234.74669 48.3625 234.54356Q48.003124 234.32481 47.846874 233.98106Q47.70625 233.63731 47.70625 232.52794L47.70625 228.35606L46.8 228.35606L46.8 227.38731L47.70625 227.38731L47.70625 225.59044L48.925 224.85606L48.925 227.38731L50.159374 227.38731L50.159374 228.35606L48.925 228.35606L48.925 232.59044Q48.925 233.12169 48.9875 233.27794Q49.05 233.41856 49.190624 233.51231Q49.346874 233.60606 49.6125 233.60606Q49.83125 233.60606 50.159374 233.55919ZM51.471874 234.65294L51.471874 224.63731L52.70625 224.63731L52.70625 228.23106Q53.565624 227.23106 54.878124 227.23106Q55.690624 227.23106 56.284374 227.55919Q56.878124 227.87169 57.128124 228.43419Q57.39375 228.98106 57.39375 230.05919L57.39375 234.65294L56.159374 234.65294L56.159374 230.05919Q56.159374 229.12169 55.753124 228.71544Q55.3625 228.29356 54.628124 228.29356Q54.08125 228.29356 53.596874 228.57481Q53.1125 228.85606 52.909374 229.34044Q52.70625 229.82481 52.70625 230.68419L52.70625 234.65294L51.471874 234.65294Z" fill-rule="nonzero"/><path fill="#9e9e9e" d="M23.76875 254.65294L22.534374 254.65294L22.534374 246.80919Q22.096874 247.23106 21.3625 247.66856Q20.64375 248.09044 20.08125 248.29356L20.08125 247.10606Q21.1125 246.62169 21.878124 245.93419Q22.659374 245.24669 22.971874 244.59044L23.76875 244.59044L23.76875 254.65294ZM31.76875 254.65294L30.534374 254.65294L30.534374 246.80919Q30.096874 247.23106 29.3625 247.66856Q28.64375 248.09044 28.08125 248.29356L28.08125 247.10606Q29.1125 246.62169 29.878124 245.93419Q30.659374 245.24669 30.971874 244.59044L31.76875 244.59044L31.76875 254.65294ZM35.815624 254.65294L35.815624 253.24669L37.221874 253.24669L37.221874 254.65294L35.815624 254.65294ZM41.01875 249.21544Q40.253124 248.93419 39.878124 248.41856Q39.51875 247.90294 39.51875 247.16856Q39.51875 246.07481 40.3 245.34044Q41.096874 244.59044 42.39375 244.59044Q43.70625 244.59044 44.503124 245.35606Q45.315624 246.12169 45.315624 247.21544Q45.315624 247.90294 44.940624 248.41856Q44.58125 248.93419 43.83125 249.21544Q44.753124 249.51231 45.2375 250.18419Q45.721874 250.85606 45.721874 251.79356Q45.721874 253.07481 44.815624 253.94981Q43.909374 254.82481 42.425 254.82481Q40.940624 254.82481 40.01875 253.94981Q39.1125 253.05919 39.1125 251.74669Q39.1125 250.77794 39.6125 250.12169Q40.1125 249.44981 41.01875 249.21544ZM40.784374 247.13731Q40.784374 247.84044 41.2375 248.29356Q41.690624 248.74669 42.425 248.74669Q43.14375 248.74669 43.596874 248.30919Q44.05 247.85606 44.05 247.19981Q44.05 246.52794 43.58125 246.07481Q43.1125 245.60606 42.409374 245.60606Q41.70625 245.60606 41.2375 246.05919Q40.784374 246.49669 40.784374 247.13731ZM40.378124 251.76231Q40.378124 252.29356 40.628124 252.79356Q40.878124 253.27794 41.3625 253.54356Q41.8625 253.80919 42.440624 253.80919Q43.315624 253.80919 43.878124 253.24669Q44.45625 252.68419 44.45625 251.80919Q44.45625 250.91856 43.8625 250.34044Q43.284374 249.74669 42.39375 249.74669Q41.51875 249.74669 40.940624 250.32481Q40.378124 250.90294 40.378124 251.76231ZM47.3625 247.04356Q47.3625 245.96544 47.89375 245.21544Q48.440624 244.46544 49.471874 244.46544Q50.409374 244.46544 51.01875 245.13731Q51.64375 245.80919 51.64375 247.10606Q51.64375 248.38731 51.01875 249.07481Q50.39375 249.76231 49.4875 249.76231Q48.58125 249.76231 47.971874 249.09044Q47.3625 248.40294 47.3625 247.04356ZM49.503124 245.30919Q49.05 245.30919 48.7375 245.71544Q48.440624 246.10606 48.440624 247.15294Q48.440624 248.12169 48.7375 248.51231Q49.05 248.90294 49.503124 248.90294Q49.971874 248.90294 50.26875 248.51231Q50.58125 248.12169 50.58125 247.05919Q50.58125 246.09044 50.26875 245.69981Q49.95625 245.30919 49.503124 245.30919ZM49.503124 255.02794L54.9875 244.46544L55.9875 244.46544L50.534374 255.02794L49.503124 255.02794ZM53.846874 252.29356Q53.846874 251.21544 54.378124 250.48106Q54.925 249.73106 55.95625 249.73106Q56.89375 249.73106 57.51875 250.40294Q58.14375 251.07481 58.14375 252.37169Q58.14375 253.65294 57.51875 254.34044Q56.89375 255.02794 55.95625 255.02794Q55.05 255.02794 54.440624 254.35606Q53.846874 253.66856 53.846874 252.29356ZM55.9875 250.57481Q55.51875 250.57481 55.221874 250.98106Q54.925 251.37169 54.925 252.41856Q54.925 253.38731 55.221874 253.77794Q55.534374 254.16856 55.9875 254.16856Q56.45625 254.16856 56.753124 253.77794Q57.065624 253.38731 57.065624 252.32481Q57.065624 251.35606 56.753124 250.96544Q56.45625 250.57481 55.9875 250.57481Z" fill-rule="nonzero"/><path stroke="#757575" stroke-width="1.0" stroke-linecap="butt" d="M18.55 240.15294L117.775 240.15294L155.01544 240.15294" fill-rule="nonzero"/><path fill="#9e9e9e" d="M157.01544 240.15294C157.01544 239.04837 156.12001 238.15294 155.01544 238.15294C153.91087 238.15294 153.01544 239.04837 153.01544 240.15294C153.01544 241.2575 153.91087 242.15294 155.01544 242.15294C156.12001 242.15294 157.01544 241.2575 157.01544 240.15294" fill-rule="nonzero"/><path fill="#1a1a1a" d="M19.596874 287.73303L19.596874 277.7174L21.58125 277.7174L23.95625 284.81116Q24.284374 285.79553 24.440624 286.29553Q24.6125 285.74866 24.971874 284.68616L27.3625 277.7174L29.159374 277.7174L29.159374 287.73303L27.878124 287.73303L27.878124 279.3424L24.95625 287.73303L23.76875 287.73303L20.8625 279.20178L20.8625 287.73303L19.596874 287.73303ZM35.20625 286.8424Q34.534374 287.42053 33.89375 287.67053Q33.26875 287.9049 32.534374 287.9049Q31.346874 287.9049 30.690624 287.32678Q30.05 286.73303 30.05 285.81116Q30.05 285.2799 30.284374 284.8424Q30.534374 284.4049 30.925 284.13928Q31.33125 283.87366 31.815624 283.73303Q32.175 283.63928 32.909374 283.54553Q34.409374 283.37366 35.1125 283.12366Q35.1125 282.87366 35.1125 282.81116Q35.1125 282.04553 34.76875 281.74866Q34.3 281.32678 33.3625 281.32678Q32.503124 281.32678 32.08125 281.63928Q31.675 281.93616 31.471874 282.70178L30.26875 282.54553Q30.425 281.76428 30.8 281.29553Q31.190624 280.82678 31.89375 280.57678Q32.6125 280.31116 33.55 280.31116Q34.471874 280.31116 35.05 280.5299Q35.628124 280.74866 35.89375 281.07678Q36.175 281.4049 36.284374 281.92053Q36.346874 282.23303 36.346874 283.04553L36.346874 284.68616Q36.346874 286.4049 36.425 286.85803Q36.503124 287.31116 36.7375 287.73303L35.45625 287.73303Q35.26875 287.3424 35.20625 286.8424ZM35.1125 284.0924Q34.440624 284.35803 33.096874 284.56116Q32.346874 284.67053 32.01875 284.81116Q31.70625 284.93616 31.534374 285.20178Q31.3625 285.4674 31.3625 285.7799Q31.3625 286.2799 31.7375 286.60803Q32.1125 286.93616 32.83125 286.93616Q33.55 286.93616 34.096874 286.62366Q34.64375 286.31116 34.909374 285.76428Q35.1125 285.35803 35.1125 284.54553L35.1125 284.0924ZM38.45625 287.73303L38.45625 280.4674L39.565624 280.4674L39.565624 281.57678Q39.9875 280.79553 40.346874 280.56116Q40.70625 280.31116 41.14375 280.31116Q41.76875 280.31116 42.409374 280.70178L41.9875 281.8424Q41.534374 281.57678 41.08125 281.57678Q40.675 281.57678 40.346874 281.82678Q40.034374 282.06116 39.89375 282.49866Q39.690624 283.1549 39.690624 283.93616L39.690624 287.73303L38.45625 287.73303ZM43.4875 287.73303L43.4875 277.7174L44.70625 277.7174L44.70625 283.42053L47.628124 280.4674L49.221874 280.4674L46.440624 283.17053L49.503124 287.73303L47.971874 287.73303L45.58125 284.01428L44.70625 284.85803L44.70625 287.73303L43.4875 287.73303ZM55.440624 285.38928L56.721874 285.54553Q56.409374 286.67053 55.596874 287.29553Q54.784374 287.9049 53.51875 287.9049Q51.925 287.9049 50.9875 286.92053Q50.065624 285.93616 50.065624 284.17053Q50.065624 282.32678 51.003124 281.32678Q51.95625 280.31116 53.45625 280.31116Q54.909374 280.31116 55.83125 281.31116Q56.753124 282.29553 56.753124 284.0924Q56.753124 284.20178 56.753124 284.42053L51.33125 284.42053Q51.409374 285.60803 52.003124 286.24866Q52.6125 286.88928 53.534374 286.88928Q54.20625 286.88928 54.675 286.5299Q55.159374 286.17053 55.440624 285.38928ZM51.409374 283.4049L55.45625 283.4049Q55.378124 282.48303 54.9875 282.0299Q54.409374 281.32678 53.471874 281.32678Q52.6125 281.32678 52.034374 281.88928Q51.471874 282.45178 51.409374 283.4049ZM61.159374 286.63928L61.33125 287.7174Q60.815624 287.82678 60.409374 287.82678Q59.7375 287.82678 59.3625 287.62366Q59.003124 287.4049 58.846874 287.06116Q58.70625 286.7174 58.70625 285.60803L58.70625 281.43616L57.8 281.43616L57.8 280.4674L58.70625 280.4674L58.70625 278.67053L59.925 277.93616L59.925 280.4674L61.159374 280.4674L61.159374 281.43616L59.925 281.43616L59.925 285.67053Q59.925 286.20178 59.9875 286.35803Q60.05 286.49866 60.190624 286.5924Q60.346874 286.68616 60.6125 286.68616Q60.83125 286.68616 61.159374 286.63928ZM62.4875 279.12366L62.4875 277.7174L63.70625 277.7174L63.70625 279.12366L62.4875 279.12366ZM62.4875 287.73303L62.4875 280.4674L63.70625 280.4674L63.70625 287.73303L62.4875 287.73303ZM65.47188 287.73303L65.47188 280.4674L66.58125 280.4674L66.58125 281.49866Q67.37813 280.31116 68.89375 280.31116Q69.55 280.31116 70.09688 280.54553Q70.64375 280.7799 70.90938 281.17053Q71.19063 281.54553 71.3 282.07678Q71.37813 282.42053 71.37813 283.26428L71.37813 287.73303L70.14375 287.73303L70.14375 283.31116Q70.14375 282.56116 70.00313 282.20178Q69.8625 281.82678 69.4875 281.60803Q69.12813 281.37366 68.62813 281.37366Q67.84688 281.37366 67.26875 281.87366Q66.70625 282.37366 66.70625 283.76428L66.70625 287.73303L65.47188 287.73303ZM73.25313 288.3424L74.44063 288.51428Q74.51875 289.06116 74.8625 289.32678Q75.31563 289.6549 76.1125 289.6549Q76.97188 289.6549 77.425 289.31116Q77.89375 288.98303 78.06563 288.35803Q78.15938 287.98303 78.14375 286.7799Q77.34688 287.73303 76.14375 287.73303Q74.64375 287.73303 73.81563 286.6549Q73.00313 285.57678 73.00313 284.06116Q73.00313 283.0299 73.37813 282.1549Q73.75313 281.26428 74.45625 280.79553Q75.175 280.31116 76.14375 280.31116Q77.425 280.31116 78.26875 281.3424L78.26875 280.4674L79.39375 280.4674L79.39375 286.74866Q79.39375 288.45178 79.05 289.1549Q78.70625 289.85803 77.95625 290.26428Q77.20625 290.68616 76.1125 290.68616Q74.81563 290.68616 74.01875 290.0924Q73.22188 289.51428 73.25313 288.3424ZM74.26875 283.9674Q74.26875 285.4049 74.83125 286.06116Q75.39375 286.7174 76.25313 286.7174Q77.09688 286.7174 77.675 286.06116Q78.25313 285.4049 78.25313 284.01428Q78.25313 282.68616 77.65938 282.01428Q77.06563 281.32678 76.2375 281.32678Q75.40938 281.32678 74.83125 281.99866Q74.26875 282.6549 74.26875 283.9674Z" fill-rule="nonzero"/><path fill="#9e9e9e" d="M23.76875 307.73303L22.534374 307.73303L22.534374 299.88928Q22.096874 300.31116 21.3625 300.74866Q20.64375 301.17053 20.08125 301.37366L20.08125 300.18616Q21.1125 299.70178 21.878124 299.01428Q22.659374 298.32678 22.971874 297.67053L23.76875 297.67053L23.76875 307.73303ZM31.76875 307.73303L30.534374 307.73303L30.534374 299.88928Q30.096874 300.31116 29.3625 300.74866Q28.64375 301.17053 28.08125 301.37366L28.08125 300.18616Q29.1125 299.70178 29.878124 299.01428Q30.659374 298.32678 30.971874 297.67053L31.76875 297.67053L31.76875 307.73303ZM35.815624 307.73303L35.815624 306.32678L37.221874 306.32678L37.221874 307.73303L35.815624 307.73303ZM41.01875 302.29553Q40.253124 302.01428 39.878124 301.49866Q39.51875 300.98303 39.51875 300.24866Q39.51875 299.1549 40.3 298.42053Q41.096874 297.67053 42.39375 297.67053Q43.70625 297.67053 44.503124 298.43616Q45.315624 299.20178 45.315624 300.29553Q45.315624 300.98303 44.940624 301.49866Q44.58125 302.01428 43.83125 302.29553Q44.753124 302.5924 45.2375 303.26428Q45.721874 303.93616 45.721874 304.87366Q45.721874 306.1549 44.815624 307.0299Q43.909374 307.9049 42.425 307.9049Q40.940624 307.9049 40.01875 307.0299Q39.1125 306.13928 39.1125 304.82678Q39.1125 303.85803 39.6125 303.20178Q40.1125 302.5299 41.01875 302.29553ZM40.784374 300.2174Q40.784374 300.92053 41.2375 301.37366Q41.690624 301.82678 42.425 301.82678Q43.14375 301.82678 43.596874 301.38928Q44.05 300.93616 44.05 300.2799Q44.05 299.60803 43.58125 299.1549Q43.1125 298.68616 42.409374 298.68616Q41.70625 298.68616 41.2375 299.13928Q40.784374 299.57678 40.784374 300.2174ZM40.378124 304.8424Q40.378124 305.37366 40.628124 305.87366Q40.878124 306.35803 41.3625 306.62366Q41.8625 306.88928 42.440624 306.88928Q43.315624 306.88928 43.878124 306.32678Q44.45625 305.76428 44.45625 304.88928Q44.45625 303.99866 43.8625 303.42053Q43.284374 302.82678 42.39375 302.82678Q41.51875 302.82678 40.940624 303.4049Q40.378124 303.98303 40.378124 304.8424ZM47.3625 300.12366Q47.3625 299.04553 47.89375 298.29553Q48.440624 297.54553 49.471874 297.54553Q50.409374 297.54553 51.01875 298.2174Q51.64375 298.88928 51.64375 300.18616Q51.64375 301.4674 51.01875 302.1549Q50.39375 302.8424 49.4875 302.8424Q48.58125 302.8424 47.971874 302.17053Q47.3625 301.48303 47.3625 300.12366ZM49.503124 298.38928Q49.05 298.38928 48.7375 298.79553Q48.440624 299.18616 48.440624 300.23303Q48.440624 301.20178 48.7375 301.5924Q49.05 301.98303 49.503124 301.98303Q49.971874 301.98303 50.26875 301.5924Q50.58125 301.20178 50.58125 300.13928Q50.58125 299.17053 50.26875 298.7799Q49.95625 298.38928 49.503124 298.38928ZM49.503124 308.10803L54.9875 297.54553L55.9875 297.54553L50.534374 308.10803L49.503124 308.10803ZM53.846874 305.37366Q53.846874 304.29553 54.378124 303.56116Q54.925 302.81116 55.95625 302.81116Q56.89375 302.81116 57.51875 303.48303Q58.14375 304.1549 58.14375 305.45178Q58.14375 306.73303 57.51875 307.42053Q56.89375 308.10803 55.95625 308.10803Q55.05 308.10803 54.440624 307.43616Q53.846874 306.74866 53.846874 305.37366ZM55.9875 303.6549Q55.51875 303.6549 55.221874 304.06116Q54.925 304.45178 54.925 305.49866Q54.925 306.4674 55.221874 306.85803Q55.534374 307.24866 55.9875 307.24866Q56.45625 307.24866 56.753124 306.85803Q57.065624 306.4674 57.065624 305.4049Q57.065624 304.43616 56.753124 304.04553Q56.45625 303.6549 55.9875 303.6549Z" fill-rule="nonzero"/><path stroke="#757575" stroke-width="1.0" stroke-linecap="butt" d="M18.55 293.23303L117.775 293.23303L249.24808 293.23303" fill-rule="nonzero"/><path fill="#9e9e9e" d="M251.24808 293.23303C251.24808 292.12848 250.35265 291.23303 249.24808 291.23303C248.14351 291.23303 247.24808 292.12848 247.24808 293.23303C247.24808 294.33762 248.14351 295.23303 249.24808 295.23303C250.35265 295.23303 251.24808 294.33762 251.24808 293.23303" fill-rule="nonzero"/><path fill="#1a1a1a" d="M521.54376 40.81422L521.54376 30.798595L525.9969 30.798595Q527.34064 30.798595 528.02814 31.06422Q528.73126 31.329845 529.1375 32.017345Q529.5594 32.704845 529.5594 33.53297Q529.5594 34.59547 528.8719 35.329845Q528.1844 36.048595 526.7469 36.25172Q527.2625 36.50172 527.54376 36.75172Q528.1219 37.28297 528.6375 38.079845L530.3875 40.81422L528.71564 40.81422L527.3875 38.736095Q526.8094 37.829845 526.4344 37.361095Q526.0594 36.87672 525.7625 36.68922Q525.46564 36.486095 525.15314 36.40797Q524.9344 36.361095 524.41876 36.361095L522.8719 36.361095L522.8719 40.81422L521.54376 40.81422ZM522.8719 35.22047L525.73126 35.22047Q526.6375 35.22047 527.15314 35.03297Q527.66876 34.84547 527.9344 34.43922Q528.2 34.017345 528.2 33.53297Q528.2 32.81422 527.6844 32.361095Q527.16876 31.892345 526.04376 31.892345L522.8719 31.892345L522.8719 35.22047ZM536.34064 38.47047L537.6219 38.62672Q537.3094 39.75172 536.4969 40.37672Q535.6844 40.986095 534.41876 40.986095Q532.825 40.986095 531.8875 40.00172Q530.96564 39.017345 530.96564 37.25172Q530.96564 35.40797 531.90314 34.40797Q532.85626 33.392345 534.35626 33.392345Q535.8094 33.392345 536.73126 34.392345Q537.65314 35.37672 537.65314 37.173595Q537.65314 37.28297 537.65314 37.50172L532.23126 37.50172Q532.3094 38.68922 532.90314 39.329845Q533.5125 39.97047 534.4344 39.97047Q535.10626 39.97047 535.575 39.611095Q536.0594 39.25172 536.34064 38.47047ZM532.3094 36.486095L536.35626 36.486095Q536.27814 35.56422 535.8875 35.111095Q535.3094 34.40797 534.3719 34.40797Q533.5125 34.40797 532.9344 34.97047Q532.3719 35.53297 532.3094 36.486095ZM538.8875 38.642345L540.09064 38.454845Q540.2 39.18922 540.66876 39.579845Q541.1375 39.97047 541.98126 39.97047Q542.825 39.97047 543.23126 39.62672Q543.65314 39.28297 543.65314 38.81422Q543.65314 38.392345 543.27814 38.15797Q543.02814 37.986095 542.02814 37.736095Q540.66876 37.392345 540.1375 37.142345Q539.6219 36.892345 539.35626 36.454845Q539.09064 36.017345 539.09064 35.486095Q539.09064 35.00172 539.3094 34.59547Q539.52814 34.173595 539.91876 33.892345Q540.2 33.68922 540.6844 33.548595Q541.1844 33.392345 541.7625 33.392345Q542.60626 33.392345 543.2469 33.642345Q543.90314 33.87672 544.21564 34.298595Q544.52814 34.72047 544.6375 35.423595L543.4344 35.59547Q543.35626 35.03297 542.95 34.72047Q542.5594 34.40797 541.84064 34.40797Q540.9969 34.40797 540.6375 34.68922Q540.27814 34.954845 540.27814 35.34547Q540.27814 35.579845 540.41876 35.767345Q540.575 35.97047 540.90314 36.09547Q541.075 36.15797 541.98126 36.40797Q543.29376 36.767345 543.8094 36.986095Q544.325 37.204845 544.60626 37.62672Q544.90314 38.048595 544.90314 38.673595Q544.90314 39.298595 544.54376 39.84547Q544.2 40.37672 543.5125 40.68922Q542.84064 40.986095 541.98126 40.986095Q540.575 40.986095 539.825 40.392345Q539.09064 39.798595 538.8875 38.642345ZM551.34064 38.47047L552.6219 38.62672Q552.3094 39.75172 551.4969 40.37672Q550.6844 40.986095 549.41876 40.986095Q547.825 40.986095 546.8875 40.00172Q545.96564 39.017345 545.96564 37.25172Q545.96564 35.40797 546.90314 34.40797Q547.85626 33.392345 549.35626 33.392345Q550.8094 33.392345 551.73126 34.392345Q552.65314 35.37672 552.65314 37.173595Q552.65314 37.28297 552.65314 37.50172L547.23126 37.50172Q547.3094 38.68922 547.90314 39.329845Q548.5125 39.97047 549.4344 39.97047Q550.10626 39.97047 550.575 39.611095Q551.0594 39.25172 551.34064 38.47047ZM547.3094 36.486095L551.35626 36.486095Q551.27814 35.56422 550.8875 35.111095Q550.3094 34.40797 549.3719 34.40797Q548.5125 34.40797 547.9344 34.97047Q547.3719 35.53297 547.3094 36.486095ZM559.10626 39.923595Q558.4344 40.50172 557.79376 40.75172Q557.16876 40.986095 556.4344 40.986095Q555.2469 40.986095 554.59064 40.40797Q553.95 39.81422 553.95 38.892345Q553.95 38.361095 554.1844 37.923595Q554.4344 37.486095 554.825 37.22047Q555.23126 36.954845 555.71564 36.81422Q556.075 36.72047 556.8094 36.62672Q558.3094 36.454845 559.0125 36.204845Q559.0125 35.954845 559.0125 35.892345Q559.0125 35.12672 558.66876 34.829845Q558.2 34.40797 557.2625 34.40797Q556.40314 34.40797 555.98126 34.72047Q555.575 35.017345 555.3719 35.78297L554.16876 35.62672Q554.325 34.84547 554.7 34.37672Q555.09064 33.90797 555.79376 33.65797Q556.5125 33.392345 557.45 33.392345Q558.3719 33.392345 558.95 33.611095Q559.52814 33.829845 559.79376 34.15797Q560.075 34.486095 560.1844 35.00172Q560.2469 35.31422 560.2469 36.12672L560.2469 37.767345Q560.2469 39.486095 560.325 39.93922Q560.40314 40.392345 560.6375 40.81422L559.35626 40.81422Q559.16876 40.423595 559.10626 39.923595ZM559.0125 37.173595Q558.34064 37.43922 556.9969 37.642345Q556.2469 37.75172 555.91876 37.892345Q555.60626 38.017345 555.4344 38.28297Q555.2625 38.548595 555.2625 38.861095Q555.2625 39.361095 555.6375 39.68922Q556.0125 40.017345 556.73126 40.017345Q557.45 40.017345 557.9969 39.704845Q558.54376 39.392345 558.8094 38.84547Q559.0125 38.43922 559.0125 37.62672L559.0125 37.173595ZM562.35626 40.81422L562.35626 33.548595L563.46564 33.548595L563.46564 34.65797Q563.8875 33.87672 564.2469 33.642345Q564.60626 33.392345 565.04376 33.392345Q565.66876 33.392345 566.3094 33.78297L565.8875 34.923595Q565.4344 34.65797 564.98126 34.65797Q564.575 34.65797 564.2469 34.90797Q563.9344 35.142345 563.79376 35.579845Q563.59064 36.236095 563.59064 37.017345L563.59064 40.81422L562.35626 40.81422ZM572.10626 38.15797L573.325 38.31422Q573.1219 39.56422 572.29376 40.28297Q571.48126 40.986095 570.29376 40.986095Q568.8094 40.986095 567.90314 40.017345Q566.9969 39.03297 566.9969 37.204845Q566.9969 36.03297 567.3875 35.15797Q567.77814 34.267345 568.575 33.829845Q569.3719 33.392345 570.3094 33.392345Q571.48126 33.392345 572.23126 33.986095Q572.9969 34.579845 573.2 35.68922L572.0125 35.87672Q571.84064 35.142345 571.40314 34.78297Q570.96564 34.40797 570.35626 34.40797Q569.41876 34.40797 568.84064 35.079845Q568.2625 35.736095 568.2625 37.173595Q568.2625 38.642345 568.825 39.31422Q569.3875 39.97047 570.27814 39.97047Q571.0125 39.97047 571.4969 39.53297Q571.98126 39.079845 572.10626 38.15797ZM574.3719 40.81422L574.3719 30.798595L575.60626 30.798595L575.60626 34.392345Q576.46564 33.392345 577.77814 33.392345Q578.59064 33.392345 579.1844 33.72047Q579.77814 34.03297 580.02814 34.59547Q580.29376 35.142345 580.29376 36.22047L580.29376 40.81422L579.0594 40.81422L579.0594 36.22047Q579.0594 35.28297 578.65314 34.87672Q578.2625 34.454845 577.52814 34.454845Q576.98126 34.454845 576.4969 34.736095Q576.0125 35.017345 575.8094 35.50172Q575.60626 35.986095 575.60626 36.84547L575.60626 40.81422L574.3719 40.81422Z" fill-rule="nonzero"/><path fill="#9e9e9e" d="M550.21564 58.50172L551.40314 58.392345Q551.54376 59.22047 551.96564 59.59547Q552.40314 59.97047 553.0594 59.97047Q553.6219 59.97047 554.04376 59.72047Q554.48126 59.454845 554.7469 59.017345Q555.02814 58.579845 555.21564 57.84547Q555.40314 57.111095 555.40314 56.34547Q555.40314 56.267345 555.3875 56.09547Q555.02814 56.68922 554.3875 57.06422Q553.7469 57.423595 552.9969 57.423595Q551.7469 57.423595 550.8875 56.517345Q550.02814 55.611095 550.02814 54.142345Q550.02814 52.611095 550.91876 51.68922Q551.825 50.75172 553.1844 50.75172Q554.15314 50.75172 554.96564 51.28297Q555.77814 51.798595 556.2 52.78297Q556.6219 53.75172 556.6219 55.59547Q556.6219 57.517345 556.2 58.65797Q555.79376 59.798595 554.96564 60.392345Q554.1375 60.986095 553.02814 60.986095Q551.85626 60.986095 551.10626 60.329845Q550.3719 59.673595 550.21564 58.50172ZM555.2469 54.079845Q555.2469 53.017345 554.6844 52.392345Q554.1219 51.767345 553.34064 51.767345Q552.5125 51.767345 551.90314 52.43922Q551.29376 53.111095 551.29376 54.173595Q551.29376 55.12672 551.8719 55.736095Q552.45 56.329845 553.29376 56.329845Q554.15314 56.329845 554.7 55.736095Q555.2469 55.12672 555.2469 54.079845ZM558.71564 60.81422L558.71564 59.40797L560.1219 59.40797L560.1219 60.81422L558.71564 60.81422ZM563.91876 55.37672Q563.15314 55.09547 562.77814 54.579845Q562.41876 54.06422 562.41876 53.329845Q562.41876 52.236095 563.2 51.50172Q563.9969 50.75172 565.29376 50.75172Q566.60626 50.75172 567.40314 51.517345Q568.21564 52.28297 568.21564 53.37672Q568.21564 54.06422 567.84064 54.579845Q567.48126 55.09547 566.73126 55.37672Q567.65314 55.673595 568.1375 56.34547Q568.6219 57.017345 568.6219 57.954845Q568.6219 59.236095 567.71564 60.111095Q566.8094 60.986095 565.325 60.986095Q563.84064 60.986095 562.91876 60.111095Q562.0125 59.22047 562.0125 57.90797Q562.0125 56.93922 562.5125 56.28297Q563.0125 55.611095 563.91876 55.37672ZM563.6844 53.298595Q563.6844 54.00172 564.1375 54.454845Q564.59064 54.90797 565.325 54.90797Q566.04376 54.90797 566.4969 54.47047Q566.95 54.017345 566.95 53.361095Q566.95 52.68922 566.48126 52.236095Q566.0125 51.767345 565.3094 51.767345Q564.60626 51.767345 564.1375 52.22047Q563.6844 52.65797 563.6844 53.298595ZM563.27814 57.923595Q563.27814 58.454845 563.52814 58.954845Q563.77814 59.43922 564.2625 59.704845Q564.7625 59.97047 565.34064 59.97047Q566.21564 59.97047 566.77814 59.40797Q567.35626 58.84547 567.35626 57.97047Q567.35626 57.079845 566.7625 56.50172Q566.1844 55.90797 565.29376 55.90797Q564.41876 55.90797 563.84064 56.486095Q563.27814 57.06422 563.27814 57.923595ZM570.2625 53.204845Q570.2625 52.12672 570.79376 51.37672Q571.34064 50.62672 572.3719 50.62672Q573.3094 50.62672 573.91876 51.298595Q574.54376 51.97047 574.54376 53.267345Q574.54376 54.548595 573.91876 55.236095Q573.29376 55.923595 572.3875 55.923595Q571.48126 55.923595 570.8719 55.25172Q570.2625 54.56422 570.2625 53.204845ZM572.40314 51.47047Q571.95 51.47047 571.6375 51.87672Q571.34064 52.267345 571.34064 53.31422Q571.34064 54.28297 571.6375 54.673595Q571.95 55.06422 572.40314 55.06422Q572.8719 55.06422 573.16876 54.673595Q573.48126 54.28297 573.48126 53.22047Q573.48126 52.25172 573.16876 51.861095Q572.85626 51.47047 572.40314 51.47047ZM572.40314 61.18922L577.8875 50.62672L578.8875 50.62672L573.4344 61.18922L572.40314 61.18922ZM576.7469 58.454845Q576.7469 57.37672 577.27814 56.642345Q577.825 55.892345 578.85626 55.892345Q579.79376 55.892345 580.41876 56.56422Q581.04376 57.236095 581.04376 58.53297Q581.04376 59.81422 580.41876 60.50172Q579.79376 61.18922 578.85626 61.18922Q577.95 61.18922 577.34064 60.517345Q576.7469 59.829845 576.7469 58.454845ZM578.8875 56.736095Q578.41876 56.736095 578.1219 57.142345Q577.825 57.53297 577.825 58.579845Q577.825 59.548595 578.1219 59.93922Q578.4344 60.329845 578.8875 60.329845Q579.35626 60.329845 579.65314 59.93922Q579.96564 59.548595 579.96564 58.486095Q579.96564 57.517345 579.65314 57.12672Q579.35626 56.736095 578.8875 56.736095Z" fill-rule="nonzero"/><path stroke="#757575" stroke-width="1.0" stroke-linecap="butt" d="M581.45 46.31422L482.225 46.31422L350.75192 69.88321" fill-rule="nonzero"/><path fill="#9e9e9e" d="M352.75192 69.88321C352.75192 68.77864 351.8565 67.88321 350.75192 67.88321C349.64737 67.88321 348.75192 68.77864 348.75192 69.88321C348.75192 70.98778 349.64737 71.88321 350.75192 71.88321C351.8565 71.88321 352.75192 70.98778 352.75192 69.88321" fill-rule="nonzero"/><path fill="#1a1a1a" d="M494.5594 77.81422L494.5594 67.79859L501.8094 67.79859L501.8094 68.97047L495.8875 68.97047L495.8875 72.04859L501.4344 72.04859L501.4344 73.22047L495.8875 73.22047L495.8875 76.62672L502.04376 76.62672L502.04376 77.81422L494.5594 77.81422ZM503.3719 77.81422L503.3719 70.54859L504.48126 70.54859L504.48126 71.57984Q505.27814 70.39234 506.79376 70.39234Q507.45 70.39234 507.9969 70.62672Q508.54376 70.86109 508.8094 71.25172Q509.09064 71.62672 509.2 72.15797Q509.27814 72.50172 509.27814 73.34547L509.27814 77.81422L508.04376 77.81422L508.04376 73.39234Q508.04376 72.64234 507.90314 72.28297Q507.7625 71.90797 507.3875 71.68922Q507.02814 71.45484 506.52814 71.45484Q505.7469 71.45484 505.16876 71.95484Q504.60626 72.45484 504.60626 73.84547L504.60626 77.81422L503.3719 77.81422ZM514.0594 76.72047L514.23126 77.79859Q513.71564 77.90797 513.3094 77.90797Q512.6375 77.90797 512.2625 77.70484Q511.90314 77.48609 511.7469 77.14234Q511.60626 76.79859 511.60626 75.68922L511.60626 71.51734L510.7 71.51734L510.7 70.54859L511.60626 70.54859L511.60626 68.75172L512.825 68.01734L512.825 70.54859L514.0594 70.54859L514.0594 71.51734L512.825 71.51734L512.825 75.75172Q512.825 76.28297 512.8875 76.43922Q512.95 76.57984 513.09064 76.67359Q513.2469 76.76734 513.5125 76.76734Q513.73126 76.76734 514.0594 76.72047ZM520.34064 75.47047L521.6219 75.62672Q521.3094 76.75172 520.4969 77.37672Q519.6844 77.98609 518.41876 77.98609Q516.825 77.98609 515.8875 77.00172Q514.96564 76.01734 514.96564 74.25172Q514.96564 72.40797 515.90314 71.40797Q516.85626 70.39234 518.35626 70.39234Q519.8094 70.39234 520.73126 71.39234Q521.65314 72.37672 521.65314 74.17359Q521.65314 74.28297 521.65314 74.50172L516.23126 74.50172Q516.3094 75.68922 516.90314 76.32984Q517.5125 76.97047 518.4344 76.97047Q519.10626 76.97047 519.575 76.61109Q520.0594 76.25172 520.34064 75.47047ZM516.3094 73.48609L520.35626 73.48609Q520.27814 72.56422 519.8875 72.11109Q519.3094 71.40797 518.3719 71.40797Q517.5125 71.40797 516.9344 71.97047Q516.3719 72.53297 516.3094 73.48609ZM523.35626 77.81422L523.35626 70.54859L524.46564 70.54859L524.46564 71.65797Q524.8875 70.87672 525.2469 70.64234Q525.60626 70.39234 526.04376 70.39234Q526.66876 70.39234 527.3094 70.78297L526.8875 71.92359Q526.4344 71.65797 525.98126 71.65797Q525.575 71.65797 525.2469 71.90797Q524.9344 72.14234 524.79376 72.57984Q524.59064 73.23609 524.59064 74.01734L524.59064 77.81422L523.35626 77.81422ZM531.0594 76.72047L531.23126 77.79859Q530.71564 77.90797 530.3094 77.90797Q529.6375 77.90797 529.2625 77.70484Q528.90314 77.48609 528.7469 77.14234Q528.60626 76.79859 528.60626 75.68922L528.60626 71.51734L527.7 71.51734L527.7 70.54859L528.60626 70.54859L528.60626 68.75172L529.825 68.01734L529.825 70.54859L531.0594 70.54859L531.0594 71.51734L529.825 71.51734L529.825 75.75172Q529.825 76.28297 529.8875 76.43922Q529.95 76.57984 530.09064 76.67359Q530.2469 76.76734 530.5125 76.76734Q530.73126 76.76734 531.0594 76.72047ZM537.10626 76.92359Q536.4344 77.50172 535.79376 77.75172Q535.16876 77.98609 534.4344 77.98609Q533.2469 77.98609 532.59064 77.40797Q531.95 76.81422 531.95 75.89234Q531.95 75.36109 532.1844 74.92359Q532.4344 74.48609 532.825 74.22047Q533.23126 73.95484 533.71564 73.81422Q534.075 73.72047 534.8094 73.62672Q536.3094 73.45484 537.0125 73.20484Q537.0125 72.95484 537.0125 72.89234Q537.0125 72.12672 536.66876 71.82984Q536.2 71.40797 535.2625 71.40797Q534.40314 71.40797 533.98126 71.72047Q533.575 72.01734 533.3719 72.78297L532.16876 72.62672Q532.325 71.84547 532.7 71.37672Q533.09064 70.90797 533.79376 70.65797Q534.5125 70.39234 535.45 70.39234Q536.3719 70.39234 536.95 70.61109Q537.52814 70.82984 537.79376 71.15797Q538.075 71.48609 538.1844 72.00172Q538.2469 72.31422 538.2469 73.12672L538.2469 74.76734Q538.2469 76.48609 538.325 76.93922Q538.40314 77.39234 538.6375 77.81422L537.35626 77.81422Q537.16876 77.42359 537.10626 76.92359ZM537.0125 74.17359Q536.34064 74.43922 534.9969 74.64234Q534.2469 74.75172 533.91876 74.89234Q533.60626 75.01734 533.4344 75.28297Q533.2625 75.54859 533.2625 75.86109Q533.2625 76.36109 533.6375 76.68922Q534.0125 77.01734 534.73126 77.01734Q535.45 77.01734 535.9969 76.70484Q536.54376 76.39234 536.8094 75.84547Q537.0125 75.43922 537.0125 74.62672L537.0125 74.17359ZM540.3875 69.20484L540.3875 67.79859L541.60626 67.79859L541.60626 69.20484L540.3875 69.20484ZM540.3875 77.81422L540.3875 70.54859L541.60626 70.54859L541.60626 77.81422L540.3875 77.81422ZM543.3719 77.81422L543.3719 70.54859L544.48126 70.54859L544.48126 71.57984Q545.27814 70.39234 546.79376 70.39234Q547.45 70.39234 547.9969 70.62672Q548.54376 70.86109 548.8094 71.25172Q549.09064 71.62672 549.2 72.15797Q549.27814 72.50172 549.27814 73.34547L549.27814 77.81422L548.04376 77.81422L548.04376 73.39234Q548.04376 72.64234 547.90314 72.28297Q547.7625 71.90797 547.3875 71.68922Q547.02814 71.45484 546.52814 71.45484Q545.7469 71.45484 545.16876 71.95484Q544.60626 72.45484 544.60626 73.84547L544.60626 77.81422L543.3719 77.81422ZM551.3719 77.81422L551.3719 70.54859L552.48126 70.54859L552.48126 71.57984Q552.8094 71.03297 553.3719 70.72047Q553.95 70.39234 554.66876 70.39234Q555.48126 70.39234 555.9969 70.73609Q556.5125 71.06422 556.73126 71.65797Q557.59064 70.39234 558.96564 70.39234Q560.04376 70.39234 560.6219 70.98609Q561.21564 71.57984 561.21564 72.82984L561.21564 77.81422L559.98126 77.81422L559.98126 73.23609Q559.98126 72.50172 559.85626 72.17359Q559.7469 71.84547 559.4344 71.65797Q559.1219 71.45484 558.7 71.45484Q557.9344 71.45484 557.41876 71.97047Q556.91876 72.47047 556.91876 73.59547L556.91876 77.81422L555.6844 77.81422L555.6844 73.09547Q555.6844 72.28297 555.3875 71.87672Q555.09064 71.45484 554.40314 71.45484Q553.8875 71.45484 553.4344 71.73609Q552.9969 72.00172 552.79376 72.53297Q552.60626 73.04859 552.60626 74.04859L552.60626 77.81422L551.3719 77.81422ZM567.34064 75.47047L568.6219 75.62672Q568.3094 76.75172 567.4969 77.37672Q566.6844 77.98609 565.41876 77.98609Q563.825 77.98609 562.8875 77.00172Q561.96564 76.01734 561.96564 74.25172Q561.96564 72.40797 562.90314 71.40797Q563.85626 70.39234 565.35626 70.39234Q566.8094 70.39234 567.73126 71.39234Q568.65314 72.37672 568.65314 74.17359Q568.65314 74.28297 568.65314 74.50172L563.23126 74.50172Q563.3094 75.68922 563.90314 76.32984Q564.5125 76.97047 565.4344 76.97047Q566.10626 76.97047 566.575 76.61109Q567.0594 76.25172 567.34064 75.47047ZM563.3094 73.48609L567.35626 73.48609Q567.27814 72.56422 566.8875 72.11109Q566.3094 71.40797 565.3719 71.40797Q564.5125 71.40797 563.9344 71.97047Q563.3719 72.53297 563.3094 73.48609ZM570.3719 77.81422L570.3719 70.54859L571.48126 70.54859L571.48126 71.57984Q572.27814 70.39234 573.79376 70.39234Q574.45 70.39234 574.9969 70.62672Q575.54376 70.86109 575.8094 71.25172Q576.09064 71.62672 576.2 72.15797Q576.27814 72.50172 576.27814 73.34547L576.27814 77.81422L575.04376 77.81422L575.04376 73.39234Q575.04376 72.64234 574.90314 72.28297Q574.7625 71.90797 574.3875 71.68922Q574.02814 71.45484 573.52814 71.45484Q572.7469 71.45484 572.16876 71.95484Q571.60626 72.45484 571.60626 73.84547L571.60626 77.81422L570.3719 77.81422ZM581.0594 76.72047L581.23126 77.79859Q580.71564 77.90797 580.3094 77.90797Q579.6375 77.90797 579.2625 77.70484Q578.90314 77.48609 578.7469 77.14234Q578.60626 76.79859 578.60626 75.68922L578.60626 71.51734L577.7 71.51734L577.7 70.54859L578.60626 70.54859L578.60626 68.75172L579.825 68.01734L579.825 70.54859L581.0594 70.54859L581.0594 71.51734L579.825 71.51734L579.825 75.75172Q579.825 76.28297 579.8875 76.43922Q579.95 76.57984 580.09064 76.67359Q580.2469 76.76734 580.5125 76.76734Q580.73126 76.76734 581.0594 76.72047Z" fill-rule="nonzero"/><path fill="#9e9e9e" d="M556.4969 96.62672L556.4969 97.81422L549.8719 97.81422Q549.85626 97.37672 550.0125 96.95484Q550.27814 96.28297 550.825 95.62672Q551.3875 94.97047 552.4344 94.11109Q554.075 92.76734 554.6375 91.98609Q555.21564 91.20484 555.21564 90.50172Q555.21564 89.76734 554.6844 89.26734Q554.16876 88.76734 553.34064 88.76734Q552.45 88.76734 551.90314 89.29859Q551.3719 89.82984 551.3719 90.78297L550.10626 90.64234Q550.23126 89.23609 551.075 88.50172Q551.9344 87.75172 553.35626 87.75172Q554.8094 87.75172 555.6375 88.54859Q556.48126 89.34547 556.48126 90.53297Q556.48126 91.14234 556.23126 91.72047Q555.9969 92.29859 555.41876 92.93922Q554.85626 93.57984 553.52814 94.70484Q552.41876 95.62672 552.10626 95.97047Q551.79376 96.29859 551.59064 96.62672L556.4969 96.62672ZM558.71564 97.81422L558.71564 96.40797L560.1219 96.40797L560.1219 97.81422L558.71564 97.81422ZM562.02814 92.87672Q562.02814 91.09547 562.3875 90.01734Q562.7625 88.92359 563.48126 88.34547Q564.2 87.75172 565.29376 87.75172Q566.10626 87.75172 566.71564 88.07984Q567.325 88.40797 567.71564 89.01734Q568.1219 89.62672 568.34064 90.50172Q568.5594 91.37672 568.5594 92.87672Q568.5594 94.64234 568.2 95.72047Q567.84064 96.79859 567.1219 97.39234Q566.40314 97.98609 565.29376 97.98609Q563.85626 97.98609 563.02814 96.93922Q562.02814 95.68922 562.02814 92.87672ZM563.29376 92.87672Q563.29376 95.34547 563.8719 96.15797Q564.45 96.97047 565.29376 96.97047Q566.15314 96.97047 566.73126 96.15797Q567.3094 95.32984 567.3094 92.87672Q567.3094 90.39234 566.73126 89.57984Q566.15314 88.76734 565.27814 88.76734Q564.4344 88.76734 563.9344 89.48609Q563.29376 90.40797 563.29376 92.87672ZM570.2625 90.20484Q570.2625 89.12672 570.79376 88.37672Q571.34064 87.62672 572.3719 87.62672Q573.3094 87.62672 573.91876 88.29859Q574.54376 88.97047 574.54376 90.26734Q574.54376 91.54859 573.91876 92.23609Q573.29376 92.92359 572.3875 92.92359Q571.48126 92.92359 570.8719 92.25172Q570.2625 91.56422 570.2625 90.20484ZM572.40314 88.47047Q571.95 88.47047 571.6375 88.87672Q571.34064 89.26734 571.34064 90.31422Q571.34064 91.28297 571.6375 91.67359Q571.95 92.06422 572.40314 92.06422Q572.8719 92.06422 573.16876 91.67359Q573.48126 91.28297 573.48126 90.22047Q573.48126 89.25172 573.16876 88.86109Q572.85626 88.47047 572.40314 88.47047ZM572.40314 98.18922L577.8875 87.62672L578.8875 87.62672L573.4344 98.18922L572.40314 98.18922ZM576.7469 95.45484Q576.7469 94.37672 577.27814 93.64234Q577.825 92.89234 578.85626 92.89234Q579.79376 92.89234 580.41876 93.56422Q581.04376 94.23609 581.04376 95.53297Q581.04376 96.81422 580.41876 97.50172Q579.79376 98.18922 578.85626 98.18922Q577.95 98.18922 577.34064 97.51734Q576.7469 96.82984 576.7469 95.45484ZM578.8875 93.73609Q578.41876 93.73609 578.1219 94.14234Q577.825 94.53297 577.825 95.57984Q577.825 96.54859 578.1219 96.93922Q578.4344 97.32984 578.8875 97.32984Q579.35626 97.32984 579.65314 96.93922Q579.96564 96.54859 579.96564 95.48609Q579.96564 94.51734 579.65314 94.12672Q579.35626 93.73609 578.8875 93.73609Z" fill-rule="nonzero"/><path stroke="#757575" stroke-width="1.0" stroke-linecap="butt" d="M581.45 83.31422L482.225 83.31422L404.95566 90.257965" fill-rule="nonzero"/><path fill="#9e9e9e" d="M406.95566 90.257965C406.95566 89.1534 406.06024 88.257965 404.95566 88.257965C403.8511 88.257965 402.95566 89.1534 402.95566 90.257965C402.95566 91.36253 403.8511 92.257965 404.95566 92.257965C406.06024 92.257965 406.95566 91.36253 406.95566 90.257965" fill-rule="nonzero"/><path fill="#1a1a1a" d="M557.48126 114.81422L557.48126 104.79859L558.8094 104.79859L558.8094 113.62672L563.73126 113.62672L563.73126 114.81422L557.48126 114.81422ZM570.10626 113.92359Q569.4344 114.50172 568.79376 114.75172Q568.16876 114.98609 567.4344 114.98609Q566.2469 114.98609 565.59064 114.40797Q564.95 113.81422 564.95 112.89234Q564.95 112.36109 565.1844 111.92359Q565.4344 111.48609 565.825 111.22047Q566.23126 110.95484 566.71564 110.81422Q567.075 110.72047 567.8094 110.62672Q569.3094 110.45484 570.0125 110.20484Q570.0125 109.95484 570.0125 109.89234Q570.0125 109.12672 569.66876 108.82984Q569.2 108.40797 568.2625 108.40797Q567.40314 108.40797 566.98126 108.72047Q566.575 109.01734 566.3719 109.78297L565.16876 109.62672Q565.325 108.84547 565.7 108.37672Q566.09064 107.90797 566.79376 107.65797Q567.5125 107.39234 568.45 107.39234Q569.3719 107.39234 569.95 107.61109Q570.52814 107.82984 570.79376 108.15797Q571.075 108.48609 571.1844 109.00172Q571.2469 109.31422 571.2469 110.12672L571.2469 111.76734Q571.2469 113.48609 571.325 113.93922Q571.40314 114.39234 571.6375 114.81422L570.35626 114.81422Q570.16876 114.42359 570.10626 113.92359ZM570.0125 111.17359Q569.34064 111.43922 567.9969 111.64234Q567.2469 111.75172 566.91876 111.89234Q566.60626 112.01734 566.4344 112.28297Q566.2625 112.54859 566.2625 112.86109Q566.2625 113.36109 566.6375 113.68922Q567.0125 114.01734 567.73126 114.01734Q568.45 114.01734 568.9969 113.70484Q569.54376 113.39234 569.8094 112.84547Q570.0125 112.43922 570.0125 111.62672L570.0125 111.17359ZM574.71564 114.81422L572.4969 107.54859L573.7625 107.54859L574.91876 111.75172L575.35626 113.29859Q575.3719 113.18922 575.73126 111.79859L576.8875 107.54859L578.1375 107.54859L579.23126 111.76734L579.59064 113.15797L580.0125 111.75172L581.2625 107.54859L582.45 107.54859L580.1844 114.81422L578.90314 114.81422L577.7469 110.47047L577.46564 109.23609L575.9969 114.81422L574.71564 114.81422Z" fill-rule="nonzero"/><path fill="#9e9e9e" d="M556.4969 133.62672L556.4969 134.81422L549.8719 134.81422Q549.85626 134.37672 550.0125 133.95485Q550.27814 133.28297 550.825 132.62672Q551.3875 131.97047 552.4344 131.1111Q554.075 129.76735 554.6375 128.9861Q555.21564 128.20485 555.21564 127.501724Q555.21564 126.76735 554.6844 126.26735Q554.16876 125.76735 553.34064 125.76735Q552.45 125.76735 551.90314 126.2986Q551.3719 126.82985 551.3719 127.782974L550.10626 127.64235Q550.23126 126.2361 551.075 125.501724Q551.9344 124.751724 553.35626 124.751724Q554.8094 124.751724 555.6375 125.5486Q556.48126 126.345474 556.48126 127.532974Q556.48126 128.14235 556.23126 128.72047Q555.9969 129.2986 555.41876 129.93922Q554.85626 130.57985 553.52814 131.70485Q552.41876 132.62672 552.10626 132.97047Q551.79376 133.2986 551.59064 133.62672L556.4969 133.62672ZM558.71564 134.81422L558.71564 133.40797L560.1219 133.40797L560.1219 134.81422L558.71564 134.81422ZM562.02814 129.87672Q562.02814 128.09547 562.3875 127.01735Q562.7625 125.9236 563.48126 125.345474Q564.2 124.751724 565.29376 124.751724Q566.10626 124.751724 566.71564 125.07985Q567.325 125.407974 567.71564 126.01735Q568.1219 126.626724 568.34064 127.501724Q568.5594 128.37672 568.5594 129.87672Q568.5594 131.64235 568.2 132.72047Q567.84064 133.7986 567.1219 134.39235Q566.40314 134.9861 565.29376 134.9861Q563.85626 134.9861 563.02814 133.93922Q562.02814 132.68922 562.02814 129.87672ZM563.29376 129.87672Q563.29376 132.34547 563.8719 133.15797Q564.45 133.97047 565.29376 133.97047Q566.15314 133.97047 566.73126 133.15797Q567.3094 132.32985 567.3094 129.87672Q567.3094 127.39235 566.73126 126.57985Q566.15314 125.76735 565.27814 125.76735Q564.4344 125.76735 563.9344 126.4861Q563.29376 127.407974 563.29376 129.87672ZM570.2625 127.20485Q570.2625 126.126724 570.79376 125.376724Q571.34064 124.626724 572.3719 124.626724Q573.3094 124.626724 573.91876 125.2986Q574.54376 125.970474 574.54376 127.26735Q574.54376 128.5486 573.91876 129.2361Q573.29376 129.9236 572.3875 129.9236Q571.48126 129.9236 570.8719 129.25172Q570.2625 128.56422 570.2625 127.20485ZM572.40314 125.470474Q571.95 125.470474 571.6375 125.876724Q571.34064 126.26735 571.34064 127.314224Q571.34064 128.28297 571.6375 128.6736Q571.95 129.06422 572.40314 129.06422Q572.8719 129.06422 573.16876 128.6736Q573.48126 128.28297 573.48126 127.220474Q573.48126 126.251724 573.16876 125.8611Q572.85626 125.470474 572.40314 125.470474ZM572.40314 135.18922L577.8875 124.626724L578.8875 124.626724L573.4344 135.18922L572.40314 135.18922ZM576.7469 132.45485Q576.7469 131.37672 577.27814 130.64235Q577.825 129.89235 578.85626 129.89235Q579.79376 129.89235 580.41876 130.56422Q581.04376 131.2361 581.04376 132.53297Q581.04376 133.81422 580.41876 134.50172Q579.79376 135.18922 578.85626 135.18922Q577.95 135.18922 577.34064 134.51735Q576.7469 133.82985 576.7469 132.45485ZM578.8875 130.7361Q578.41876 130.7361 578.1219 131.14235Q577.825 131.53297 577.825 132.57985Q577.825 133.5486 578.1219 133.93922Q578.4344 134.32985 578.8875 134.32985Q579.35626 134.32985 579.65314 133.93922Q579.96564 133.5486 579.96564 132.4861Q579.96564 131.51735 579.65314 131.12672Q579.35626 130.7361 578.8875 130.7361Z" fill-rule="nonzero"/><path stroke="#757575" stroke-width="1.0" stroke-linecap="butt" d="M581.45 120.31422L482.225 120.31422L420.18832 99.97845" fill-rule="nonzero"/><path fill="#9e9e9e" d="M422.18832 99.97845C422.18832 98.87388 421.2929 97.97845 420.18832 97.97845C419.08377 97.97845 418.18832 98.87388 418.18832 99.97845C418.18832 101.083015 419.08377 101.97845 420.18832 101.97845C421.2929 101.97845 422.18832 101.083015 422.18832 99.97845" fill-rule="nonzero"/><path fill="#1a1a1a" d="M531.60626 151.81422L531.60626 141.7986L538.35626 141.7986L538.35626 142.97047L532.91876 142.97047L532.91876 146.07985L537.6219 146.07985L537.6219 147.26735L532.91876 147.26735L532.91876 151.81422L531.60626 151.81422ZM540.3875 143.20485L540.3875 141.7986L541.60626 141.7986L541.60626 143.20485L540.3875 143.20485ZM540.3875 151.81422L540.3875 144.5486L541.60626 144.5486L541.60626 151.81422L540.3875 151.81422ZM543.3719 151.81422L543.3719 144.5486L544.48126 144.5486L544.48126 145.57985Q545.27814 144.39235 546.79376 144.39235Q547.45 144.39235 547.9969 144.62672Q548.54376 144.8611 548.8094 145.25172Q549.09064 145.62672 549.2 146.15797Q549.27814 146.50172 549.27814 147.34547L549.27814 151.81422L548.04376 151.81422L548.04376 147.39235Q548.04376 146.64235 547.90314 146.28297Q547.7625 145.90797 547.3875 145.68922Q547.02814 145.45485 546.52814 145.45485Q545.7469 145.45485 545.16876 145.95485Q544.60626 146.45485 544.60626 147.84547L544.60626 151.81422L543.3719 151.81422ZM556.10626 150.9236Q555.4344 151.50172 554.79376 151.75172Q554.16876 151.9861 553.4344 151.9861Q552.2469 151.9861 551.59064 151.40797Q550.95 150.81422 550.95 149.89235Q550.95 149.3611 551.1844 148.9236Q551.4344 148.4861 551.825 148.22047Q552.23126 147.95485 552.71564 147.81422Q553.075 147.72047 553.8094 147.62672Q555.3094 147.45485 556.0125 147.20485Q556.0125 146.95485 556.0125 146.89235Q556.0125 146.12672 555.66876 145.82985Q555.2 145.40797 554.2625 145.40797Q553.40314 145.40797 552.98126 145.72047Q552.575 146.01735 552.3719 146.78297L551.16876 146.62672Q551.325 145.84547 551.7 145.37672Q552.09064 144.90797 552.79376 144.65797Q553.5125 144.39235 554.45 144.39235Q555.3719 144.39235 555.95 144.6111Q556.52814 144.82985 556.79376 145.15797Q557.075 145.4861 557.1844 146.00172Q557.2469 146.31422 557.2469 147.12672L557.2469 148.76735Q557.2469 150.4861 557.325 150.93922Q557.40314 151.39235 557.6375 151.81422L556.35626 151.81422Q556.16876 151.4236 556.10626 150.9236ZM556.0125 148.1736Q555.34064 148.43922 553.9969 148.64235Q553.2469 148.75172 552.91876 148.89235Q552.60626 149.01735 552.4344 149.28297Q552.2625 149.5486 552.2625 149.8611Q552.2625 150.3611 552.6375 150.68922Q553.0125 151.01735 553.73126 151.01735Q554.45 151.01735 554.9969 150.70485Q555.54376 150.39235 555.8094 149.84547Q556.0125 149.43922 556.0125 148.62672L556.0125 148.1736ZM559.3719 151.81422L559.3719 144.5486L560.48126 144.5486L560.48126 145.57985Q561.27814 144.39235 562.79376 144.39235Q563.45 144.39235 563.9969 144.62672Q564.54376 144.8611 564.8094 145.25172Q565.09064 145.62672 565.2 146.15797Q565.27814 146.50172 565.27814 147.34547L565.27814 151.81422L564.04376 151.81422L564.04376 147.39235Q564.04376 146.64235 563.90314 146.28297Q563.7625 145.90797 563.3875 145.68922Q563.02814 145.45485 562.52814 145.45485Q561.7469 145.45485 561.16876 145.95485Q560.60626 146.45485 560.60626 147.84547L560.60626 151.81422L559.3719 151.81422ZM572.10626 149.15797L573.325 149.31422Q573.1219 150.56422 572.29376 151.28297Q571.48126 151.9861 570.29376 151.9861Q568.8094 151.9861 567.90314 151.01735Q566.9969 150.03297 566.9969 148.20485Q566.9969 147.03297 567.3875 146.15797Q567.77814 145.26735 568.575 144.82985Q569.3719 144.39235 570.3094 144.39235Q571.48126 144.39235 572.23126 144.9861Q572.9969 145.57985 573.2 146.68922L572.0125 146.87672Q571.84064 146.14235 571.40314 145.78297Q570.96564 145.40797 570.35626 145.40797Q569.41876 145.40797 568.84064 146.07985Q568.2625 146.7361 568.2625 148.1736Q568.2625 149.64235 568.825 150.31422Q569.3875 150.97047 570.27814 150.97047Q571.0125 150.97047 571.4969 150.53297Q571.98126 150.07985 572.10626 149.15797ZM579.34064 149.47047L580.6219 149.62672Q580.3094 150.75172 579.4969 151.37672Q578.6844 151.9861 577.41876 151.9861Q575.825 151.9861 574.8875 151.00172Q573.96564 150.01735 573.96564 148.25172Q573.96564 146.40797 574.90314 145.40797Q575.85626 144.39235 577.35626 144.39235Q578.8094 144.39235 579.73126 145.39235Q580.65314 146.37672 580.65314 148.1736Q580.65314 148.28297 580.65314 148.50172L575.23126 148.50172Q575.3094 149.68922 575.90314 150.32985Q576.5125 150.97047 577.4344 150.97047Q578.10626 150.97047 578.575 150.6111Q579.0594 150.25172 579.34064 149.47047ZM575.3094 147.4861L579.35626 147.4861Q579.27814 146.56422 578.8875 146.1111Q578.3094 145.40797 577.3719 145.40797Q576.5125 145.40797 575.9344 145.97047Q575.3719 146.53297 575.3094 147.4861Z" fill-rule="nonzero"/><path fill="#9e9e9e" d="M550.10626 163.1111L550.10626 161.9236L556.60626 161.9236L556.60626 162.87672Q555.6375 163.89235 554.7 165.57985Q553.7625 167.26735 553.2469 169.06422Q552.8875 170.31422 552.77814 171.81422L551.5125 171.81422Q551.52814 170.62672 551.96564 168.95485Q552.41876 167.28297 553.2469 165.7361Q554.09064 164.1736 555.02814 163.1111L550.10626 163.1111ZM558.71564 171.81422L558.71564 170.40797L560.1219 170.40797L560.1219 171.81422L558.71564 171.81422ZM563.91876 166.37672Q563.15314 166.09547 562.77814 165.57985Q562.41876 165.06422 562.41876 164.32985Q562.41876 163.2361 563.2 162.50172Q563.9969 161.75172 565.29376 161.75172Q566.60626 161.75172 567.40314 162.51735Q568.21564 163.28297 568.21564 164.37672Q568.21564 165.06422 567.84064 165.57985Q567.48126 166.09547 566.73126 166.37672Q567.65314 166.6736 568.1375 167.34547Q568.6219 168.01735 568.6219 168.95485Q568.6219 170.2361 567.71564 171.1111Q566.8094 171.9861 565.325 171.9861Q563.84064 171.9861 562.91876 171.1111Q562.0125 170.22047 562.0125 168.90797Q562.0125 167.93922 562.5125 167.28297Q563.0125 166.6111 563.91876 166.37672ZM563.6844 164.2986Q563.6844 165.00172 564.1375 165.45485Q564.59064 165.90797 565.325 165.90797Q566.04376 165.90797 566.4969 165.47047Q566.95 165.01735 566.95 164.3611Q566.95 163.68922 566.48126 163.2361Q566.0125 162.76735 565.3094 162.76735Q564.60626 162.76735 564.1375 163.22047Q563.6844 163.65797 563.6844 164.2986ZM563.27814 168.9236Q563.27814 169.45485 563.52814 169.95485Q563.77814 170.43922 564.2625 170.70485Q564.7625 170.97047 565.34064 170.97047Q566.21564 170.97047 566.77814 170.40797Q567.35626 169.84547 567.35626 168.97047Q567.35626 168.07985 566.7625 167.50172Q566.1844 166.90797 565.29376 166.90797Q564.41876 166.90797 563.84064 167.4861Q563.27814 168.06422 563.27814 168.9236ZM570.2625 164.20485Q570.2625 163.12672 570.79376 162.37672Q571.34064 161.62672 572.3719 161.62672Q573.3094 161.62672 573.91876 162.2986Q574.54376 162.97047 574.54376 164.26735Q574.54376 165.5486 573.91876 166.2361Q573.29376 166.9236 572.3875 166.9236Q571.48126 166.9236 570.8719 166.25172Q570.2625 165.56422 570.2625 164.20485ZM572.40314 162.47047Q571.95 162.47047 571.6375 162.87672Q571.34064 163.26735 571.34064 164.31422Q571.34064 165.28297 571.6375 165.6736Q571.95 166.06422 572.40314 166.06422Q572.8719 166.06422 573.16876 165.6736Q573.48126 165.28297 573.48126 164.22047Q573.48126 163.25172 573.16876 162.8611Q572.85626 162.47047 572.40314 162.47047ZM572.40314 172.18922L577.8875 161.62672L578.8875 161.62672L573.4344 172.18922L572.40314 172.18922ZM576.7469 169.45485Q576.7469 168.37672 577.27814 167.64235Q577.825 166.89235 578.85626 166.89235Q579.79376 166.89235 580.41876 167.56422Q581.04376 168.2361 581.04376 169.53297Q581.04376 170.81422 580.41876 171.50172Q579.79376 172.18922 578.85626 172.18922Q577.95 172.18922 577.34064 171.51735Q576.7469 170.82985 576.7469 169.45485ZM578.8875 167.7361Q578.41876 167.7361 578.1219 168.14235Q577.825 168.53297 577.825 169.57985Q577.825 170.5486 578.1219 170.93922Q578.4344 171.32985 578.8875 171.32985Q579.35626 171.32985 579.65314 170.93922Q579.96564 170.5486 579.96564 169.4861Q579.96564 168.51735 579.65314 168.12672Q579.35626 167.7361 578.8875 167.7361Z" fill-rule="nonzero"/><path stroke="#757575" stroke-width="1.0" stroke-linecap="butt" d="M581.45 157.31422L482.225 157.31422L449.86264 129.32222" fill-rule="nonzero"/><path fill="#9e9e9e" d="M451.86264 129.32222C451.86264 128.21765 450.96722 127.32221 449.86264 127.32221C448.7581 127.32221 447.86264 128.21765 447.86264 129.32222C447.86264 130.42679 448.7581 131.32222 449.86264 131.32222C450.96722 131.32222 451.86264 130.42679 451.86264 129.32222" fill-rule="nonzero"/><path fill="#1a1a1a" d="M518.575 188.81422L518.575 178.7986L519.90314 178.7986L519.90314 182.90797L525.10626 182.90797L525.10626 178.7986L526.4344 178.7986L526.4344 188.81422L525.10626 188.81422L525.10626 184.09547L519.90314 184.09547L519.90314 188.81422L518.575 188.81422ZM526.91876 185.18922Q526.91876 183.1736 528.04376 182.18922Q528.96564 181.39235 530.325 181.39235Q531.8094 181.39235 532.7625 182.37672Q533.71564 183.34547 533.71564 185.07985Q533.71564 186.4861 533.29376 187.2986Q532.8719 188.09547 532.0594 188.5486Q531.2625 188.9861 530.325 188.9861Q528.79376 188.9861 527.85626 188.00172Q526.91876 187.01735 526.91876 185.18922ZM528.1844 185.18922Q528.1844 186.57985 528.79376 187.28297Q529.40314 187.97047 530.325 187.97047Q531.23126 187.97047 531.84064 187.26735Q532.45 186.56422 532.45 185.14235Q532.45 183.7986 531.84064 183.1111Q531.23126 182.40797 530.325 182.40797Q529.40314 182.40797 528.79376 183.09547Q528.1844 183.78297 528.1844 185.18922ZM534.8875 186.64235L536.09064 186.45485Q536.2 187.18922 536.66876 187.57985Q537.1375 187.97047 537.98126 187.97047Q538.825 187.97047 539.23126 187.62672Q539.65314 187.28297 539.65314 186.81422Q539.65314 186.39235 539.27814 186.15797Q539.02814 185.9861 538.02814 185.7361Q536.66876 185.39235 536.1375 185.14235Q535.6219 184.89235 535.35626 184.45485Q535.09064 184.01735 535.09064 183.4861Q535.09064 183.00172 535.3094 182.59547Q535.52814 182.1736 535.91876 181.89235Q536.2 181.68922 536.6844 181.5486Q537.1844 181.39235 537.7625 181.39235Q538.60626 181.39235 539.2469 181.64235Q539.90314 181.87672 540.21564 182.2986Q540.52814 182.72047 540.6375 183.4236L539.4344 183.59547Q539.35626 183.03297 538.95 182.72047Q538.5594 182.40797 537.84064 182.40797Q536.9969 182.40797 536.6375 182.68922Q536.27814 182.95485 536.27814 183.34547Q536.27814 183.57985 536.41876 183.76735Q536.575 183.97047 536.90314 184.09547Q537.075 184.15797 537.98126 184.40797Q539.29376 184.76735 539.8094 184.9861Q540.325 185.20485 540.60626 185.62672Q540.90314 186.0486 540.90314 186.6736Q540.90314 187.2986 540.54376 187.84547Q540.2 188.37672 539.5125 188.68922Q538.84064 188.9861 537.98126 188.9861Q536.575 188.9861 535.825 188.39235Q535.09064 187.7986 534.8875 186.64235ZM542.3719 191.59547L542.3719 181.5486L543.4969 181.5486L543.4969 182.50172Q543.8875 181.93922 544.3875 181.6736Q544.8875 181.39235 545.60626 181.39235Q546.52814 181.39235 547.23126 181.87672Q547.95 182.34547 548.3094 183.22047Q548.66876 184.09547 548.66876 185.12672Q548.66876 186.2361 548.2625 187.14235Q547.8719 188.03297 547.10626 188.51735Q546.35626 188.9861 545.5125 188.9861Q544.90314 188.9861 544.40314 188.72047Q543.91876 188.45485 543.60626 188.06422L543.60626 191.59547L542.3719 191.59547ZM543.48126 185.22047Q543.48126 186.62672 544.04376 187.2986Q544.6219 187.97047 545.4344 187.97047Q546.2469 187.97047 546.825 187.28297Q547.41876 186.57985 547.41876 185.12672Q547.41876 183.7361 546.84064 183.0486Q546.27814 182.3611 545.48126 182.3611Q544.7 182.3611 544.09064 183.09547Q543.48126 183.82985 543.48126 185.22047ZM550.3875 180.20485L550.3875 178.7986L551.60626 178.7986L551.60626 180.20485L550.3875 180.20485ZM550.3875 188.81422L550.3875 181.5486L551.60626 181.5486L551.60626 188.81422L550.3875 188.81422ZM556.0594 187.72047L556.23126 188.7986Q555.71564 188.90797 555.3094 188.90797Q554.6375 188.90797 554.2625 188.70485Q553.90314 188.4861 553.7469 188.14235Q553.60626 187.7986 553.60626 186.68922L553.60626 182.51735L552.7 182.51735L552.7 181.5486L553.60626 181.5486L553.60626 179.75172L554.825 179.01735L554.825 181.5486L556.0594 181.5486L556.0594 182.51735L554.825 182.51735L554.825 186.75172Q554.825 187.28297 554.8875 187.43922Q554.95 187.57985 555.09064 187.6736Q555.2469 187.76735 555.5125 187.76735Q555.73126 187.76735 556.0594 187.72047ZM562.10626 187.9236Q561.4344 188.50172 560.79376 188.75172Q560.16876 188.9861 559.4344 188.9861Q558.2469 188.9861 557.59064 188.40797Q556.95 187.81422 556.95 186.89235Q556.95 186.3611 557.1844 185.9236Q557.4344 185.4861 557.825 185.22047Q558.23126 184.95485 558.71564 184.81422Q559.075 184.72047 559.8094 184.62672Q561.3094 184.45485 562.0125 184.20485Q562.0125 183.95485 562.0125 183.89235Q562.0125 183.12672 561.66876 182.82985Q561.2 182.40797 560.2625 182.40797Q559.40314 182.40797 558.98126 182.72047Q558.575 183.01735 558.3719 183.78297L557.16876 183.62672Q557.325 182.84547 557.7 182.37672Q558.09064 181.90797 558.79376 181.65797Q559.5125 181.39235 560.45 181.39235Q561.3719 181.39235 561.95 181.6111Q562.52814 181.82985 562.79376 182.15797Q563.075 182.4861 563.1844 183.00172Q563.2469 183.31422 563.2469 184.12672L563.2469 185.76735Q563.2469 187.4861 563.325 187.93922Q563.40314 188.39235 563.6375 188.81422L562.35626 188.81422Q562.16876 188.4236 562.10626 187.9236ZM562.0125 185.1736Q561.34064 185.43922 559.9969 185.64235Q559.2469 185.75172 558.91876 185.89235Q558.60626 186.01735 558.4344 186.28297Q558.2625 186.5486 558.2625 186.8611Q558.2625 187.3611 558.6375 187.68922Q559.0125 188.01735 559.73126 188.01735Q560.45 188.01735 560.9969 187.70485Q561.54376 187.39235 561.8094 186.84547Q562.0125 186.43922 562.0125 185.62672L562.0125 185.1736ZM565.34064 188.81422L565.34064 178.7986L566.575 178.7986L566.575 188.81422L565.34064 188.81422ZM568.3875 180.20485L568.3875 178.7986L569.60626 178.7986L569.60626 180.20485L568.3875 180.20485ZM568.3875 188.81422L568.3875 181.5486L569.60626 181.5486L569.60626 188.81422L568.3875 188.81422ZM574.0594 187.72047L574.23126 188.7986Q573.71564 188.90797 573.3094 188.90797Q572.6375 188.90797 572.2625 188.70485Q571.90314 188.4861 571.7469 188.14235Q571.60626 187.7986 571.60626 186.68922L571.60626 182.51735L570.7 182.51735L570.7 181.5486L571.60626 181.5486L571.60626 179.75172L572.825 179.01735L572.825 181.5486L574.0594 181.5486L574.0594 182.51735L572.825 182.51735L572.825 186.75172Q572.825 187.28297 572.8875 187.43922Q572.95 187.57985 573.09064 187.6736Q573.2469 187.76735 573.5125 187.76735Q573.73126 187.76735 574.0594 187.72047ZM575.325 191.6111L575.1844 190.45485Q575.59064 190.56422 575.8875 190.56422Q576.29376 190.56422 576.54376 190.4236Q576.79376 190.2986 576.95 190.0486Q577.0594 189.8611 577.325 189.12672Q577.35626 189.03297 577.4344 188.82985L574.66876 181.5486L575.9969 181.5486L577.5125 185.75172Q577.8094 186.56422 578.04376 187.43922Q578.2469 186.59547 578.54376 185.78297L580.09064 181.5486L581.325 181.5486L578.5594 188.93922Q578.1219 190.12672 577.8719 190.57985Q577.54376 191.18922 577.1219 191.47047Q576.7 191.76735 576.10626 191.76735Q575.7625 191.76735 575.325 191.6111Z" fill-rule="nonzero"/><path fill="#9e9e9e" d="M550.04376 206.1736L551.2625 206.00172Q551.48126 207.0486 551.98126 207.51735Q552.4969 207.97047 553.23126 207.97047Q554.10626 207.97047 554.7 207.37672Q555.29376 206.76735 555.29376 205.87672Q555.29376 205.03297 554.73126 204.4861Q554.1844 203.93922 553.34064 203.93922Q552.98126 203.93922 552.46564 204.06422L552.60626 202.9861Q552.73126 203.00172 552.79376 203.00172Q553.59064 203.00172 554.21564 202.59547Q554.84064 202.18922 554.84064 201.32985Q554.84064 200.65797 554.3875 200.22047Q553.9344 199.76735 553.2 199.76735Q552.48126 199.76735 551.9969 200.22047Q551.52814 200.65797 551.3875 201.56422L550.16876 201.34547Q550.3875 200.1111 551.1844 199.43922Q551.98126 198.75172 553.16876 198.75172Q553.9969 198.75172 554.6844 199.1111Q555.3719 199.45485 555.73126 200.06422Q556.10626 200.6736 556.10626 201.3611Q556.10626 202.00172 555.7625 202.53297Q555.41876 203.06422 554.73126 203.39235Q555.6219 203.59547 556.10626 204.2361Q556.60626 204.87672 556.60626 205.8611Q556.60626 207.1736 555.6375 208.07985Q554.6844 208.9861 553.23126 208.9861Q551.90314 208.9861 551.02814 208.20485Q550.16876 207.4236 550.04376 206.1736ZM558.71564 208.81422L558.71564 207.40797L560.1219 207.40797L560.1219 208.81422L558.71564 208.81422ZM562.21564 206.50172L563.40314 206.39235Q563.54376 207.22047 563.96564 207.59547Q564.40314 207.97047 565.0594 207.97047Q565.6219 207.97047 566.04376 207.72047Q566.48126 207.45485 566.7469 207.01735Q567.02814 206.57985 567.21564 205.84547Q567.40314 205.1111 567.40314 204.34547Q567.40314 204.26735 567.3875 204.09547Q567.02814 204.68922 566.3875 205.06422Q565.7469 205.4236 564.9969 205.4236Q563.7469 205.4236 562.8875 204.51735Q562.02814 203.6111 562.02814 202.14235Q562.02814 200.6111 562.91876 199.68922Q563.825 198.75172 565.1844 198.75172Q566.15314 198.75172 566.96564 199.28297Q567.77814 199.7986 568.2 200.78297Q568.6219 201.75172 568.6219 203.59547Q568.6219 205.51735 568.2 206.65797Q567.79376 207.7986 566.96564 208.39235Q566.1375 208.9861 565.02814 208.9861Q563.85626 208.9861 563.10626 208.32985Q562.3719 207.6736 562.21564 206.50172ZM567.2469 202.07985Q567.2469 201.01735 566.6844 200.39235Q566.1219 199.76735 565.34064 199.76735Q564.5125 199.76735 563.90314 200.43922Q563.29376 201.1111 563.29376 202.1736Q563.29376 203.12672 563.8719 203.7361Q564.45 204.32985 565.29376 204.32985Q566.15314 204.32985 566.7 203.7361Q567.2469 203.12672 567.2469 202.07985ZM570.2625 201.20485Q570.2625 200.12672 570.79376 199.37672Q571.34064 198.62672 572.3719 198.62672Q573.3094 198.62672 573.91876 199.2986Q574.54376 199.97047 574.54376 201.26735Q574.54376 202.5486 573.91876 203.2361Q573.29376 203.9236 572.3875 203.9236Q571.48126 203.9236 570.8719 203.25172Q570.2625 202.56422 570.2625 201.20485ZM572.40314 199.47047Q571.95 199.47047 571.6375 199.87672Q571.34064 200.26735 571.34064 201.31422Q571.34064 202.28297 571.6375 202.6736Q571.95 203.06422 572.40314 203.06422Q572.8719 203.06422 573.16876 202.6736Q573.48126 202.28297 573.48126 201.22047Q573.48126 200.25172 573.16876 199.8611Q572.85626 199.47047 572.40314 199.47047ZM572.40314 209.18922L577.8875 198.62672L578.8875 198.62672L573.4344 209.18922L572.40314 209.18922ZM576.7469 206.45485Q576.7469 205.37672 577.27814 204.64235Q577.825 203.89235 578.85626 203.89235Q579.79376 203.89235 580.41876 204.56422Q581.04376 205.2361 581.04376 206.53297Q581.04376 207.81422 580.41876 208.50172Q579.79376 209.18922 578.85626 209.18922Q577.95 209.18922 577.34064 208.51735Q576.7469 207.82985 576.7469 206.45485ZM578.8875 204.7361Q578.41876 204.7361 578.1219 205.14235Q577.825 205.53297 577.825 206.57985Q577.825 207.5486 578.1219 207.93922Q578.4344 208.32985 578.8875 208.32985Q579.35626 208.32985 579.65314 207.93922Q579.96564 207.5486 579.96564 206.4861Q579.96564 205.51735 579.65314 205.12672Q579.35626 204.7361 578.8875 204.7361Z" fill-rule="nonzero"/><path stroke="#757575" stroke-width="1.0" stroke-linecap="butt" d="M581.45 194.31422L482.225 194.31422L466.6996 170.74522" fill-rule="nonzero"/><path fill="#9e9e9e" d="M468.6996 170.74522C468.6996 169.64066 467.80417 168.74522 466.6996 168.74522C465.59503 168.74522 464.6996 169.64066 464.6996 170.74522C464.6996 171.8498 465.59503 172.74522 466.6996 172.74522C467.80417 172.74522 468.6996 171.8498 468.6996 170.74522" fill-rule="nonzero"/><path fill="#1a1a1a" d="M519.5594 234.65294L519.5594 224.63731L526.8094 224.63731L526.8094 225.80919L520.8875 225.80919L520.8875 228.88731L526.4344 228.88731L526.4344 230.05919L520.8875 230.05919L520.8875 233.46544L527.04376 233.46544L527.04376 234.65294L519.5594 234.65294ZM533.09064 234.65294L533.09064 233.73106Q532.3875 234.82481 531.0594 234.82481Q530.1844 234.82481 529.45 234.34044Q528.73126 233.85606 528.325 232.99669Q527.9344 232.13731 527.9344 231.02794Q527.9344 229.94981 528.29376 229.05919Q528.65314 228.16856 529.3719 227.69981Q530.10626 227.23106 530.9969 227.23106Q531.65314 227.23106 532.16876 227.51231Q532.6844 227.77794 532.9969 228.23106L532.9969 224.63731L534.23126 224.63731L534.23126 234.65294L533.09064 234.65294ZM529.2 231.02794Q529.2 232.41856 529.77814 233.12169Q530.3719 233.80919 531.16876 233.80919Q531.98126 233.80919 532.54376 233.15294Q533.10626 232.48106 533.10626 231.13731Q533.10626 229.63731 532.52814 228.94981Q531.95 228.24669 531.1219 228.24669Q530.29376 228.24669 529.7469 228.91856Q529.2 229.59044 529.2 231.02794ZM541.1375 234.65294L541.1375 233.59044Q540.27814 234.82481 538.825 234.82481Q538.1844 234.82481 537.6219 234.57481Q537.075 234.32481 536.79376 233.94981Q536.52814 233.57481 536.41876 233.04356Q536.34064 232.68419 536.34064 231.88731L536.34064 227.38731L537.575 227.38731L537.575 231.41856Q537.575 232.38731 537.65314 232.71544Q537.7625 233.19981 538.1375 233.48106Q538.5125 233.76231 539.075 233.76231Q539.6219 233.76231 540.10626 233.48106Q540.59064 233.18419 540.79376 232.69981Q540.9969 232.21544 540.9969 231.27794L540.9969 227.38731L542.23126 227.38731L542.23126 234.65294L541.1375 234.65294ZM549.10626 231.99669L550.325 232.15294Q550.1219 233.40294 549.29376 234.12169Q548.48126 234.82481 547.29376 234.82481Q545.8094 234.82481 544.90314 233.85606Q543.9969 232.87169 543.9969 231.04356Q543.9969 229.87169 544.3875 228.99669Q544.77814 228.10606 545.575 227.66856Q546.3719 227.23106 547.3094 227.23106Q548.48126 227.23106 549.23126 227.82481Q549.9969 228.41856 550.2 229.52794L549.0125 229.71544Q548.84064 228.98106 548.40314 228.62169Q547.96564 228.24669 547.35626 228.24669Q546.41876 228.24669 545.84064 228.91856Q545.2625 229.57481 545.2625 231.01231Q545.2625 232.48106 545.825 233.15294Q546.3875 233.80919 547.27814 233.80919Q548.0125 233.80919 548.4969 233.37169Q548.98126 232.91856 549.10626 231.99669ZM556.10626 233.76231Q555.4344 234.34044 554.79376 234.59044Q554.16876 234.82481 553.4344 234.82481Q552.2469 234.82481 551.59064 234.24669Q550.95 233.65294 550.95 232.73106Q550.95 232.19981 551.1844 231.76231Q551.4344 231.32481 551.825 231.05919Q552.23126 230.79356 552.71564 230.65294Q553.075 230.55919 553.8094 230.46544Q555.3094 230.29356 556.0125 230.04356Q556.0125 229.79356 556.0125 229.73106Q556.0125 228.96544 555.66876 228.66856Q555.2 228.24669 554.2625 228.24669Q553.40314 228.24669 552.98126 228.55919Q552.575 228.85606 552.3719 229.62169L551.16876 229.46544Q551.325 228.68419 551.7 228.21544Q552.09064 227.74669 552.79376 227.49669Q553.5125 227.23106 554.45 227.23106Q555.3719 227.23106 555.95 227.44981Q556.52814 227.66856 556.79376 227.99669Q557.075 228.32481 557.1844 228.84044Q557.2469 229.15294 557.2469 229.96544L557.2469 231.60606Q557.2469 233.32481 557.325 233.77794Q557.40314 234.23106 557.6375 234.65294L556.35626 234.65294Q556.16876 234.26231 556.10626 233.76231ZM556.0125 231.01231Q555.34064 231.27794 553.9969 231.48106Q553.2469 231.59044 552.91876 231.73106Q552.60626 231.85606 552.4344 232.12169Q552.2625 232.38731 552.2625 232.69981Q552.2625 233.19981 552.6375 233.52794Q553.0125 233.85606 553.73126 233.85606Q554.45 233.85606 554.9969 233.54356Q555.54376 233.23106 555.8094 232.68419Q556.0125 232.27794 556.0125 231.46544L556.0125 231.01231ZM562.0594 233.55919L562.23126 234.63731Q561.71564 234.74669 561.3094 234.74669Q560.6375 234.74669 560.2625 234.54356Q559.90314 234.32481 559.7469 233.98106Q559.60626 233.63731 559.60626 232.52794L559.60626 228.35606L558.7 228.35606L558.7 227.38731L559.60626 227.38731L559.60626 225.59044L560.825 224.85606L560.825 227.38731L562.0594 227.38731L562.0594 228.35606L560.825 228.35606L560.825 232.59044Q560.825 233.12169 560.8875 233.27794Q560.95 233.41856 561.09064 233.51231Q561.2469 233.60606 561.5125 233.60606Q561.73126 233.60606 562.0594 233.55919ZM563.3875 226.04356L563.3875 224.63731L564.60626 224.63731L564.60626 226.04356L563.3875 226.04356ZM563.3875 234.65294L563.3875 227.38731L564.60626 227.38731L564.60626 234.65294L563.3875 234.65294ZM565.91876 231.02794Q565.91876 229.01231 567.04376 228.02794Q567.96564 227.23106 569.325 227.23106Q570.8094 227.23106 571.7625 228.21544Q572.71564 229.18419 572.71564 230.91856Q572.71564 232.32481 572.29376 233.13731Q571.8719 233.93419 571.0594 234.38731Q570.2625 234.82481 569.325 234.82481Q567.79376 234.82481 566.85626 233.84044Q565.91876 232.85606 565.91876 231.02794ZM567.1844 231.02794Q567.1844 232.41856 567.79376 233.12169Q568.40314 233.80919 569.325 233.80919Q570.23126 233.80919 570.84064 233.10606Q571.45 232.40294 571.45 230.98106Q571.45 229.63731 570.84064 228.94981Q570.23126 228.24669 569.325 228.24669Q568.40314 228.24669 567.79376 228.93419Q567.1844 229.62169 567.1844 231.02794ZM574.3719 234.65294L574.3719 227.38731L575.48126 227.38731L575.48126 228.41856Q576.27814 227.23106 577.79376 227.23106Q578.45 227.23106 578.9969 227.46544Q579.54376 227.69981 579.8094 228.09044Q580.09064 228.46544 580.2 228.99669Q580.27814 229.34044 580.27814 230.18419L580.27814 234.65294L579.04376 234.65294L579.04376 230.23106Q579.04376 229.48106 578.90314 229.12169Q578.7625 228.74669 578.3875 228.52794Q578.02814 228.29356 577.52814 228.29356Q576.7469 228.29356 576.16876 228.79356Q575.60626 229.29356 575.60626 230.68419L575.60626 234.65294L574.3719 234.65294Z" fill-rule="nonzero"/><path fill="#9e9e9e" d="M546.66876 254.65294L545.4344 254.65294L545.4344 246.80919Q544.9969 247.23106 544.2625 247.66856Q543.54376 248.09044 542.98126 248.29356L542.98126 247.10606Q544.0125 246.62169 544.77814 245.93419Q545.5594 245.24669 545.8719 244.59044L546.66876 244.59044L546.66876 254.65294ZM550.02814 252.02794L551.325 251.91856Q551.46564 252.85606 551.98126 253.34044Q552.5125 253.80919 553.2469 253.80919Q554.1375 253.80919 554.7469 253.13731Q555.3719 252.46544 555.3719 251.37169Q555.3719 250.30919 554.77814 249.69981Q554.1844 249.09044 553.23126 249.09044Q552.6375 249.09044 552.15314 249.37169Q551.6844 249.63731 551.40314 250.05919L550.2469 249.91856L551.21564 244.76231L556.2 244.76231L556.2 245.94981L552.2 245.94981L551.66876 248.63731Q552.575 248.01231 553.5594 248.01231Q554.8719 248.01231 555.7625 248.91856Q556.66876 249.82481 556.66876 251.26231Q556.66876 252.62169 555.8875 253.60606Q554.91876 254.82481 553.2469 254.82481Q551.8875 254.82481 551.0125 254.05919Q550.15314 253.29356 550.02814 252.02794ZM558.71564 254.65294L558.71564 253.24669L560.1219 253.24669L560.1219 254.65294L558.71564 254.65294ZM562.10626 245.94981L562.10626 244.76231L568.60626 244.76231L568.60626 245.71544Q567.6375 246.73106 566.7 248.41856Q565.7625 250.10606 565.2469 251.90294Q564.8875 253.15294 564.77814 254.65294L563.5125 254.65294Q563.52814 253.46544 563.96564 251.79356Q564.41876 250.12169 565.2469 248.57481Q566.09064 247.01231 567.02814 245.94981L562.10626 245.94981ZM570.2625 247.04356Q570.2625 245.96544 570.79376 245.21544Q571.34064 244.46544 572.3719 244.46544Q573.3094 244.46544 573.91876 245.13731Q574.54376 245.80919 574.54376 247.10606Q574.54376 248.38731 573.91876 249.07481Q573.29376 249.76231 572.3875 249.76231Q571.48126 249.76231 570.8719 249.09044Q570.2625 248.40294 570.2625 247.04356ZM572.40314 245.30919Q571.95 245.30919 571.6375 245.71544Q571.34064 246.10606 571.34064 247.15294Q571.34064 248.12169 571.6375 248.51231Q571.95 248.90294 572.40314 248.90294Q572.8719 248.90294 573.16876 248.51231Q573.48126 248.12169 573.48126 247.05919Q573.48126 246.09044 573.16876 245.69981Q572.85626 245.30919 572.40314 245.30919ZM572.40314 255.02794L577.8875 244.46544L578.8875 244.46544L573.4344 255.02794L572.40314 255.02794ZM576.7469 252.29356Q576.7469 251.21544 577.27814 250.48106Q577.825 249.73106 578.85626 249.73106Q579.79376 249.73106 580.41876 250.40294Q581.04376 251.07481 581.04376 252.37169Q581.04376 253.65294 580.41876 254.34044Q579.79376 255.02794 578.85626 255.02794Q577.95 255.02794 577.34064 254.35606Q576.7469 253.66856 576.7469 252.29356ZM578.8875 250.57481Q578.41876 250.57481 578.1219 250.98106Q577.825 251.37169 577.825 252.41856Q577.825 253.38731 578.1219 253.77794Q578.4344 254.16856 578.8875 254.16856Q579.35626 254.16856 579.65314 253.77794Q579.96564 253.38731 579.96564 252.32481Q579.96564 251.35606 579.65314 250.96544Q579.35626 250.57481 578.8875 250.57481Z" fill-rule="nonzero"/><path stroke="#757575" stroke-width="1.0" stroke-linecap="butt" d="M581.45 240.15294L482.225 240.15294L444.98456 240.15294" fill-rule="nonzero"/><path fill="#9e9e9e" d="M446.98456 240.15294C446.98456 239.04837 446.08914 238.15294 444.98456 238.15294C443.88 238.15294 442.98456 239.04837 442.98456 240.15294C442.98456 241.2575 443.88 242.15294 444.98456 242.15294C446.08914 242.15294 446.98456 241.2575 446.98456 240.15294" fill-rule="nonzero"/><path fill="#1a1a1a" d="M553.075 287.73303L553.075 278.88928L549.77814 278.88928L549.77814 277.7174L557.71564 277.7174L557.71564 278.88928L554.40314 278.88928L554.40314 287.73303L553.075 287.73303ZM564.34064 285.38928L565.6219 285.54553Q565.3094 286.67053 564.4969 287.29553Q563.6844 287.9049 562.41876 287.9049Q560.825 287.9049 559.8875 286.92053Q558.96564 285.93616 558.96564 284.17053Q558.96564 282.32678 559.90314 281.32678Q560.85626 280.31116 562.35626 280.31116Q563.8094 280.31116 564.73126 281.31116Q565.65314 282.29553 565.65314 284.0924Q565.65314 284.20178 565.65314 284.42053L560.23126 284.42053Q560.3094 285.60803 560.90314 286.24866Q561.5125 286.88928 562.4344 286.88928Q563.10626 286.88928 563.575 286.5299Q564.0594 286.17053 564.34064 285.38928ZM560.3094 283.4049L564.35626 283.4049Q564.27814 282.48303 563.8875 282.0299Q563.3094 281.32678 562.3719 281.32678Q561.5125 281.32678 560.9344 281.88928Q560.3719 282.45178 560.3094 283.4049ZM572.10626 285.07678L573.325 285.23303Q573.1219 286.48303 572.29376 287.20178Q571.48126 287.9049 570.29376 287.9049Q568.8094 287.9049 567.90314 286.93616Q566.9969 285.95178 566.9969 284.12366Q566.9969 282.95178 567.3875 282.07678Q567.77814 281.18616 568.575 280.74866Q569.3719 280.31116 570.3094 280.31116Q571.48126 280.31116 572.23126 280.9049Q572.9969 281.49866 573.2 282.60803L572.0125 282.79553Q571.84064 282.06116 571.40314 281.70178Q570.96564 281.32678 570.35626 281.32678Q569.41876 281.32678 568.84064 281.99866Q568.2625 282.6549 568.2625 284.0924Q568.2625 285.56116 568.825 286.23303Q569.3875 286.88928 570.27814 286.88928Q571.0125 286.88928 571.4969 286.45178Q571.98126 285.99866 572.10626 285.07678ZM574.3719 287.73303L574.3719 277.7174L575.60626 277.7174L575.60626 281.31116Q576.46564 280.31116 577.77814 280.31116Q578.59064 280.31116 579.1844 280.63928Q579.77814 280.95178 580.02814 281.51428Q580.29376 282.06116 580.29376 283.13928L580.29376 287.73303L579.0594 287.73303L579.0594 283.13928Q579.0594 282.20178 578.65314 281.79553Q578.2625 281.37366 577.52814 281.37366Q576.98126 281.37366 576.4969 281.6549Q576.0125 281.93616 575.8094 282.42053Q575.60626 282.9049 575.60626 283.76428L575.60626 287.73303L574.3719 287.73303Z" fill-rule="nonzero"/><path fill="#9e9e9e" d="M550.10626 299.0299L550.10626 297.8424L556.60626 297.8424L556.60626 298.79553Q555.6375 299.81116 554.7 301.49866Q553.7625 303.18616 553.2469 304.98303Q552.8875 306.23303 552.77814 307.73303L551.5125 307.73303Q551.52814 306.54553 551.96564 304.87366Q552.41876 303.20178 553.2469 301.6549Q554.09064 300.0924 555.02814 299.0299L550.10626 299.0299ZM558.71564 307.73303L558.71564 306.32678L560.1219 306.32678L560.1219 307.73303L558.71564 307.73303ZM563.91876 302.29553Q563.15314 302.01428 562.77814 301.49866Q562.41876 300.98303 562.41876 300.24866Q562.41876 299.1549 563.2 298.42053Q563.9969 297.67053 565.29376 297.67053Q566.60626 297.67053 567.40314 298.43616Q568.21564 299.20178 568.21564 300.29553Q568.21564 300.98303 567.84064 301.49866Q567.48126 302.01428 566.73126 302.29553Q567.65314 302.5924 568.1375 303.26428Q568.6219 303.93616 568.6219 304.87366Q568.6219 306.1549 567.71564 307.0299Q566.8094 307.9049 565.325 307.9049Q563.84064 307.9049 562.91876 307.0299Q562.0125 306.13928 562.0125 304.82678Q562.0125 303.85803 562.5125 303.20178Q563.0125 302.5299 563.91876 302.29553ZM563.6844 300.2174Q563.6844 300.92053 564.1375 301.37366Q564.59064 301.82678 565.325 301.82678Q566.04376 301.82678 566.4969 301.38928Q566.95 300.93616 566.95 300.2799Q566.95 299.60803 566.48126 299.1549Q566.0125 298.68616 565.3094 298.68616Q564.60626 298.68616 564.1375 299.13928Q563.6844 299.57678 563.6844 300.2174ZM563.27814 304.8424Q563.27814 305.37366 563.52814 305.87366Q563.77814 306.35803 564.2625 306.62366Q564.7625 306.88928 565.34064 306.88928Q566.21564 306.88928 566.77814 306.32678Q567.35626 305.76428 567.35626 304.88928Q567.35626 303.99866 566.7625 303.42053Q566.1844 302.82678 565.29376 302.82678Q564.41876 302.82678 563.84064 303.4049Q563.27814 303.98303 563.27814 304.8424ZM570.2625 300.12366Q570.2625 299.04553 570.79376 298.29553Q571.34064 297.54553 572.3719 297.54553Q573.3094 297.54553 573.91876 298.2174Q574.54376 298.88928 574.54376 300.18616Q574.54376 301.4674 573.91876 302.1549Q573.29376 302.8424 572.3875 302.8424Q571.48126 302.8424 570.8719 302.17053Q570.2625 301.48303 570.2625 300.12366ZM572.40314 298.38928Q571.95 298.38928 571.6375 298.79553Q571.34064 299.18616 571.34064 300.23303Q571.34064 301.20178 571.6375 301.5924Q571.95 301.98303 572.40314 301.98303Q572.8719 301.98303 573.16876 301.5924Q573.48126 301.20178 573.48126 300.13928Q573.48126 299.17053 573.16876 298.7799Q572.85626 298.38928 572.40314 298.38928ZM572.40314 308.10803L577.8875 297.54553L578.8875 297.54553L573.4344 308.10803L572.40314 308.10803ZM576.7469 305.37366Q576.7469 304.29553 577.27814 303.56116Q577.825 302.81116 578.85626 302.81116Q579.79376 302.81116 580.41876 303.48303Q581.04376 304.1549 581.04376 305.45178Q581.04376 306.73303 580.41876 307.42053Q579.79376 308.10803 578.85626 308.10803Q577.95 308.10803 577.34064 307.43616Q576.7469 306.74866 576.7469 305.37366ZM578.8875 303.6549Q578.41876 303.6549 578.1219 304.06116Q577.825 304.45178 577.825 305.49866Q577.825 306.4674 578.1219 306.85803Q578.4344 307.24866 578.8875 307.24866Q579.35626 307.24866 579.65314 306.85803Q579.96564 306.4674 579.96564 305.4049Q579.96564 304.43616 579.65314 304.04553Q579.35626 303.6549 578.8875 303.6549Z" fill-rule="nonzero"/><path stroke="#757575" stroke-width="1.0" stroke-linecap="butt" d="M581.45 293.23303L482.225 293.23303L350.75192 293.23303" fill-rule="nonzero"/><path fill="#9e9e9e" d="M352.75192 293.23303C352.75192 292.12848 351.8565 291.23303 350.75192 291.23303C349.64737 291.23303 348.75192 292.12848 348.75192 293.23303C348.75192 294.33762 349.64737 295.23303 350.75192 295.23303C351.8565 295.23303 352.75192 294.33762 352.75192 293.23303" fill-rule="nonzero"/></svg>